<svg width="1107" height="551" viewBox="0 0 1107 551" fill="none" xmlns="http://www.w3.org/2000/svg">
<g clip-path="url(#clip0_589_55950)">
<rect width="1107" height="551" fill="white"/>
<path d="M275.395 548.915C426.064 548.915 548.205 426.774 548.205 276.106C548.205 125.437 426.064 3.29639 275.395 3.29639C124.727 3.29639 2.58594 125.437 2.58594 276.106C2.58594 426.774 124.727 548.915 275.395 548.915Z" fill="#D2DCDC"/>
<mask id="mask0_589_55950" style="mask-type:alpha" maskUnits="userSpaceOnUse" x="2" y="3" width="547" height="546">
<path d="M275.395 548.915C426.064 548.915 548.205 426.774 548.205 276.106C548.205 125.437 426.064 3.29639 275.395 3.29639C124.727 3.29639 2.58594 125.437 2.58594 276.106C2.58594 426.774 124.727 548.915 275.395 548.915Z" fill="#D2DCDC"/>
</mask>
<g mask="url(#mask0_589_55950)">
<path d="M548.393 385.014L548.037 -37L430.766 -36.9009L431.122 385.113L548.393 385.014Z" fill="#FF92B7"/>
<path d="M516.277 403.946L528.453 403.946L528.453 391.77L516.277 391.77L516.277 403.946Z" fill="#00DA72"/>
<path d="M504.101 391.77L516.277 391.77L516.277 379.594L504.101 379.594L504.101 391.77Z" fill="#00DA72"/>
<path d="M504.101 367.417L516.277 367.417L516.277 355.241L504.101 355.241L504.101 367.417Z" fill="#00DA72"/>
<path d="M491.924 403.946L504.101 403.946L504.101 391.77L491.924 391.77L491.924 403.946Z" fill="#00DA72"/>
<path d="M516.277 379.594L528.453 379.594L528.453 367.417L516.277 367.417L516.277 379.594Z" fill="#00DA72"/>
<path d="M491.924 379.594L504.101 379.594L504.101 367.417L491.924 367.417L491.924 379.594Z" fill="#00DA72"/>
<path d="M479.748 391.77L491.925 391.77L491.925 379.594L479.748 379.594L479.748 391.77Z" fill="#00DA72"/>
<path d="M479.748 367.417L491.925 367.417L491.925 355.241L479.748 355.241L479.748 367.417Z" fill="#00DA72"/>
<path d="M467.572 403.946L479.748 403.946L479.748 391.77L467.572 391.77L467.572 403.946Z" fill="#00DA72"/>
<path d="M455.396 391.77L467.572 391.77L467.572 379.594L455.396 379.594L455.396 391.77Z" fill="#00DA72"/>
<path d="M455.396 367.417L467.572 367.417L467.572 355.241L455.396 355.241L455.396 367.417Z" fill="#00DA72"/>
<path d="M443.22 403.946L455.396 403.946L455.396 391.77L443.22 391.77L443.22 403.946Z" fill="#00DA72"/>
<path d="M467.572 379.594L479.748 379.594L479.748 367.417L467.572 367.417L467.572 379.594Z" fill="#00DA72"/>
<path d="M443.219 379.594L455.396 379.594L455.396 367.417L443.219 367.417L443.219 379.594Z" fill="#00DA72"/>
<path d="M431.043 391.77L443.219 391.77L443.219 379.594L431.043 379.594L431.043 391.77Z" fill="#00DA72"/>
<path d="M431.043 367.417L443.219 367.417L443.219 355.241L431.043 355.241L431.043 367.417Z" fill="#00DA72"/>
<path d="M516.277 355.241L528.453 355.241L528.453 343.065L516.277 343.065L516.277 355.241Z" fill="#00DA72"/>
<path d="M504.101 343.065L516.277 343.065L516.277 330.888L504.101 330.888L504.101 343.065Z" fill="#00DA72"/>
<path d="M504 319L516 319L516 307L504 307L504 319Z" fill="#00DA72"/>
<path d="M491.924 355.241L504.101 355.241L504.101 343.065L491.924 343.065L491.924 355.241Z" fill="#00DA72"/>
<path d="M516.277 330.888L528.453 330.888L528.453 318.712L516.277 318.712L516.277 330.888Z" fill="#00DA72"/>
<path d="M492 331L504 331L504 319L492 319L492 331Z" fill="#00DA72"/>
<path d="M480 343L492 343L492 331L480 331L480 343Z" fill="#00DA72"/>
<path d="M480 319L492 319L492 307L480 307L480 319Z" fill="#00DA72"/>
<path d="M467.572 355.241L479.748 355.241L479.748 343.065L467.572 343.065L467.572 355.241Z" fill="#00DA72"/>
<path d="M456 343L468 343L468 331L456 331L456 343Z" fill="#00DA72"/>
<path d="M455 319L468 319L468 307L455 307L455 319Z" fill="#00DA72"/>
<path d="M443.219 355.241L455.396 355.241L455.396 343.065L443.219 343.065L443.219 355.241Z" fill="#00DA72"/>
<path d="M468 331L480 331L480 319L468 319L468 331Z" fill="#00DA72"/>
<path d="M443 331L455 331L455 319L443 319L443 331Z" fill="#00DA72"/>
<path d="M431.043 343.065L443.219 343.065L443.219 330.889L431.043 330.889L431.043 343.065Z" fill="#00DA72"/>
<path d="M431.043 318.712L443.219 318.712L443.219 306.536L431.043 306.536L431.043 318.712Z" fill="#00DA72"/>
<path d="M516 307L528 307L528 294L516 294L516 307Z" fill="#00DA72"/>
<path d="M504 294L516 294L516 282L504 282L504 294Z" fill="#00DA72"/>
<path d="M504.101 270.007L516.277 270.007L516.277 257.831L504.101 257.831L504.101 270.007Z" fill="#00DA72"/>
<path d="M492 307L504 307L504 294L492 294L492 307Z" fill="#00DA72"/>
<path d="M516 282L528 282L528 270L516 270L516 282Z" fill="#00DA72"/>
<path d="M492 282L504 282L504 270L492 270L492 282Z" fill="#00DA72"/>
<path d="M480 294L492 294L492 282L480 282L480 294Z" fill="#00DA72"/>
<path d="M480 270L492 270L492 258L480 258L480 270Z" fill="#00DA72"/>
<path d="M468 307L480 307L480 294L468 294L468 307Z" fill="#00DA72"/>
<path d="M455 294L468 294L468 282L455 282L455 294Z" fill="#00DA72"/>
<path d="M455 270L468 270L468 258L455 258L455 270Z" fill="#00DA72"/>
<path d="M443 307L455 307L455 294L443 294L443 307Z" fill="#00DA72"/>
<path d="M467.572 282.184L479.748 282.184L479.748 270.007L467.572 270.007L467.572 282.184Z" fill="#00DA72"/>
<path d="M443 282L455 282L455 270L443 270L443 282Z" fill="#00DA72"/>
<path d="M431 294L443 294L443 284L431 284L431 294Z" fill="#00DA72"/>
<path d="M431 270L443 270L443 258L431 258L431 270Z" fill="#00DA72"/>
<path d="M516 258.176L528.176 258.176L528.176 246L516 246L516 258.176Z" fill="#00DA72"/>
<path d="M504 246L516 246L516 233L504 233L504 246Z" fill="#00DA72"/>
<path d="M504 221L516 221L516 209L504 209L504 221Z" fill="#00DA72"/>
<path d="M492 258L504 258L504 246L492 246L492 258Z" fill="#00DA72"/>
<path d="M516 233L528 233L528 221L516 221L516 233Z" fill="#00DA72"/>
<path d="M492 233L504 233L504 221L492 221L492 233Z" fill="#00DA72"/>
<path d="M480 246L492 246L492 233L480 233L480 246Z" fill="#00DA72"/>
<path d="M479.748 221.302L491.924 221.302L491.924 209.126L479.748 209.126L479.748 221.302Z" fill="#00DA72"/>
<path d="M468 258L480 258L480 246L468 246L468 258Z" fill="#00DA72"/>
<path d="M455 246L468 246L468 233L455 233L455 246Z" fill="#00DA72"/>
<path d="M455 221L468 221L468 209L455 209L455 221Z" fill="#00DA72"/>
<path d="M443 258L455 258L455 246L443 246L443 258Z" fill="#00DA72"/>
<path d="M468 233L480 233L480 221L468 221L468 233Z" fill="#00DA72"/>
<path d="M443 233L455 233L455 221L443 221L443 233Z" fill="#00DA72"/>
<path d="M431 246L443 246L443 233L431 233L431 246Z" fill="#00DA72"/>
<path d="M431 221L443 221L443 209L431 209L431 221Z" fill="#00DA72"/>
<path d="M516 209L528 209L528 197L516 197L516 209Z" fill="#00DA72"/>
<path d="M504 197L516 197L516 185L504 185L504 197Z" fill="#00DA72"/>
<path d="M504 173L516 173L516 160L504 160L504 173Z" fill="#00DA72"/>
<path d="M492 209L504 209L504 197L492 197L492 209Z" fill="#00DA72"/>
<path d="M516 185L528 185L528 173L516 173L516 185Z" fill="#00DA72"/>
<path d="M492 185L504 185L504 173L492 173L492 185Z" fill="#00DA72"/>
<path d="M480 197L492 197L492 185L480 185L480 197Z" fill="#00DA72"/>
<path d="M480 173L492 173L492 160L480 160L480 173Z" fill="#00DA72"/>
<path d="M468 209L480 209L480 197L468 197L468 209Z" fill="#00DA72"/>
<path d="M455 197L468 197L468 185L455 185L455 197Z" fill="#00DA72"/>
<path d="M455 173L468 173L468 160L455 160L455 173Z" fill="#00DA72"/>
<path d="M443.182 209.126L455.364 209.126L455.364 196.95L443.182 196.95L443.182 209.126Z" fill="#00DA72"/>
<path d="M468 185L480 185L480 173L468 173L468 185Z" fill="#00DA72"/>
<path d="M443 185L455 185L455 173L443 173L443 185Z" fill="#00DA72"/>
<path d="M431 196.95L443.182 196.95L443.182 184.773L431 184.773L431 196.95Z" fill="#00DA72"/>
<path d="M431 172.597L443.182 172.597L443.182 160.421L431 160.421L431 172.597Z" fill="#00DA72"/>
<path d="M516 160L528 160L528 148L516 148L516 160Z" fill="#00DA72"/>
<path d="M504 148L516 148L516 136L504 136L504 148Z" fill="#00DA72"/>
<path d="M504.09 123.892L516.271 123.892L516.271 111.716L504.09 111.716L504.09 123.892Z" fill="#00DA72"/>
<path d="M492 160L504 160L504 148L492 148L492 160Z" fill="#00DA72"/>
<path d="M516.271 136.069L528.453 136.069L528.453 123.892L516.271 123.892L516.271 136.069Z" fill="#00DA72"/>
<path d="M492 136L504 136L504 124L492 124L492 136Z" fill="#00DA72"/>
<path d="M480 148L492 148L492 136L480 136L480 148Z" fill="#00DA72"/>
<path d="M480 124L492 124L492 112L480 112L480 124Z" fill="#00DA72"/>
<path d="M468 160L480 160L480 148L468 148L468 160Z" fill="#00DA72"/>
<path d="M455 148L468 148L468 136L455 136L455 148Z" fill="#00DA72"/>
<path d="M455 124L468 124L468 112L455 112L455 124Z" fill="#00DA72"/>
<path d="M443 160L455 160L455 148L443 148L443 160Z" fill="#00DA72"/>
<path d="M468 136L480 136L480 124L468 124L468 136Z" fill="#00DA72"/>
<path d="M443 136L455 136L455 124L443 124L443 136Z" fill="#00DA72"/>
<path d="M431 148L443 148L443 136L431 136L431 148Z" fill="#00DA72"/>
<path d="M431 124L443 124L443 112L431 112L431 124Z" fill="#00DA72"/>
<path d="M516.272 111.716L528.453 111.716L528.453 99.5398L516.272 99.5398L516.272 111.716Z" fill="#00DA72"/>
<path d="M504.09 99.5396L516.271 99.5396L516.271 87.3633L504.09 87.3633L504.09 99.5396Z" fill="#00DA72"/>
<path d="M504.09 75.1873L516.271 75.1873L516.271 63.011L504.09 63.011L504.09 75.1873Z" fill="#00DA72"/>
<path d="M492 112L504 112L504 100L492 100L492 112Z" fill="#00DA72"/>
<path d="M516.272 87.3638L528.453 87.3638L528.453 75.1875L516.272 75.1875L516.272 87.3638Z" fill="#00DA72"/>
<path d="M491.908 87.3638L504.09 87.3638L504.09 75.1875L491.908 75.1875L491.908 87.3638Z" fill="#00DA72"/>
<path d="M479.727 99.5396L491.908 99.5396L491.908 87.3633L479.727 87.3633L479.727 99.5396Z" fill="#00DA72"/>
<path d="M479.727 75.1875L491.908 75.1875L491.908 63.0113L479.727 63.0113L479.727 75.1875Z" fill="#00DA72"/>
<path d="M468 112L480 112L480 100L468 100L468 112Z" fill="#00DA72"/>
<path d="M455 100L468 100L468 87L455 87L455 100Z" fill="#00DA72"/>
<path d="M455 75L467 75L467 63L455 63L455 75Z" fill="#00DA72"/>
<path d="M443 112L455 112L455 100L443 100L443 112Z" fill="#00DA72"/>
<path d="M468 87L480 87L480 75L468 75L468 87Z" fill="#00DA72"/>
<path d="M443 87L455 87L455 75L443 75L443 87Z" fill="#00DA72"/>
<path d="M431 100L443 100L443 87L431 87L431 100Z" fill="#00DA72"/>
<path d="M431 75L443 75L443 63L431 63L431 75Z" fill="#00DA72"/>
<path d="M516.271 63.011L528.453 63.011L528.453 50.8348L516.271 50.8348L516.271 63.011Z" fill="#00DA72"/>
<path d="M504.09 50.8347L516.271 50.8347L516.271 38.6585L504.09 38.6585L504.09 50.8347Z" fill="#00DA72"/>
<path d="M504.09 26.4824L516.271 26.4824L516.271 14.3062L504.09 14.3062L504.09 26.4824Z" fill="#00DA72"/>
<path d="M491.908 63.011L504.09 63.011L504.09 50.8348L491.908 50.8348L491.908 63.011Z" fill="#00DA72"/>
<path d="M516.271 38.6587L528.453 38.6587L528.453 26.4825L516.271 26.4825L516.271 38.6587Z" fill="#00DA72"/>
<path d="M491.908 38.6589L504.09 38.6589L504.09 26.4827L491.908 26.4827L491.908 38.6589Z" fill="#00DA72"/>
<path d="M479.727 50.8347L491.908 50.8347L491.908 38.6585L479.727 38.6585L479.727 50.8347Z" fill="#00DA72"/>
<path d="M479.727 26.4824L491.908 26.4824L491.908 14.3062L479.727 14.3062L479.727 26.4824Z" fill="#00DA72"/>
<path d="M467.545 63.011L479.727 63.011L479.727 50.8348L467.545 50.8348L467.545 63.011Z" fill="#00DA72"/>
<path d="M455.364 50.8347L467.545 50.8347L467.545 38.6585L455.364 38.6585L455.364 50.8347Z" fill="#00DA72"/>
<path d="M455.364 26.4824L467.545 26.4824L467.545 14.3062L455.364 14.3062L455.364 26.4824Z" fill="#00DA72"/>
<path d="M443 63L455 63L455 51L443 51L443 63Z" fill="#00DA72"/>
<path d="M467.545 38.6589L479.727 38.6589L479.727 26.4827L467.545 26.4827L467.545 38.6589Z" fill="#00DA72"/>
<path d="M443.182 38.6589L455.363 38.6589L455.363 26.4827L443.182 26.4827L443.182 38.6589Z" fill="#00DA72"/>
<path d="M431 50.8347L443.182 50.8347L443.182 38.6585L431 38.6585L431 50.8347Z" fill="#00DA72"/>
<path d="M431 26.4824L443.182 26.4824L443.182 14.3062L431 14.3062L431 26.4824Z" fill="#00DA72"/>
<path d="M540.233 403.946L552.467 403.946L552.467 391.761L540.233 391.761L540.233 403.946Z" fill="#00DA72"/>
<path d="M540.233 379.577L552.467 379.577L552.467 367.393L540.233 367.393L540.233 379.577Z" fill="#00DA72"/>
<path d="M528 391.762L540.233 391.762L540.233 379.578L528 379.578L528 391.762Z" fill="#00DA72"/>
<path d="M528 367.393L540.233 367.393L540.233 355.209L528 355.209L528 367.393Z" fill="#00DA72"/>
<path d="M540.233 355.209L552.467 355.209L552.467 343.025L540.233 343.025L540.233 355.209Z" fill="#00DA72"/>
<path d="M540.233 330.841L552.467 330.841L552.467 318.657L540.233 318.657L540.233 330.841Z" fill="#00DA72"/>
<path d="M528 343.025L540.233 343.025L540.233 330.841L528 330.841L528 343.025Z" fill="#00DA72"/>
<path d="M528 318.657L540.233 318.657L540.233 306.473L528 306.473L528 318.657Z" fill="#00DA72"/>
<path d="M540.233 306.473L552.466 306.473L552.466 294.289L540.233 294.289L540.233 306.473Z" fill="#00DA72"/>
<path d="M540.233 282.105L552.466 282.105L552.466 269.921L540.233 269.921L540.233 282.105Z" fill="#00DA72"/>
<path d="M528 294L540 294L540 282L528 282L528 294Z" fill="#00DA72"/>
<path d="M528 269.921L540.233 269.921L540.233 257.737L528 257.737L528 269.921Z" fill="#00DA72"/>
<path d="M540.233 257.737L552.466 257.737L552.466 245.552L540.233 245.552L540.233 257.737Z" fill="#00DA72"/>
<path d="M540 233L552 233L552 221L540 221L540 233Z" fill="#00DA72"/>
<path d="M528 245L540 245L540 233L528 233L528 245Z" fill="#00DA72"/>
<path d="M528 221L540 221L540 209L528 209L528 221Z" fill="#00DA72"/>
<path d="M540.633 209.126L552.809 209.126L552.809 196.95L540.633 196.95L540.633 209.126Z" fill="#00DA72"/>
<path d="M540.633 184.773L552.809 184.773L552.809 172.597L540.633 172.597L540.633 184.773Z" fill="#00DA72"/>
<path d="M528.457 196.95L540.633 196.95L540.633 184.773L528.457 184.773L528.457 196.95Z" fill="#00DA72"/>
<path d="M528.457 172.597L540.633 172.597L540.633 160.421L528.457 160.421L528.457 172.597Z" fill="#00DA72"/>
<path d="M540.633 160.421L552.809 160.421L552.809 148.245L540.633 148.245L540.633 160.421Z" fill="#00DA72"/>
<path d="M540.633 136.068L552.809 136.068L552.809 123.892L540.633 123.892L540.633 136.068Z" fill="#00DA72"/>
<path d="M528.457 148.245L540.633 148.245L540.633 136.068L528.457 136.068L528.457 148.245Z" fill="#00DA72"/>
<path d="M528.457 123.892L540.633 123.892L540.633 111.716L528.457 111.716L528.457 123.892Z" fill="#00DA72"/>
<path d="M540.633 111.716L552.809 111.716L552.809 99.5398L540.633 99.5398L540.633 111.716Z" fill="#00DA72"/>
<path d="M540.633 87.3638L552.809 87.3638L552.809 75.1875L540.633 75.1875L540.633 87.3638Z" fill="#00DA72"/>
<path d="M528.457 99.5396L540.633 99.5396L540.633 87.3633L528.457 87.3633L528.457 99.5396Z" fill="#00DA72"/>
<path d="M528.457 75.1875L540.633 75.1875L540.633 63.0113L528.457 63.0113L528.457 75.1875Z" fill="#00DA72"/>
<path d="M540.633 63.011L552.809 63.011L552.809 50.8348L540.633 50.8348L540.633 63.011Z" fill="#00DA72"/>
<path d="M540.633 38.6589L552.809 38.6589L552.809 26.4827L540.633 26.4827L540.633 38.6589Z" fill="#00DA72"/>
<path d="M528.457 50.8347L540.633 50.8347L540.633 38.6585L528.457 38.6585L528.457 50.8347Z" fill="#00DA72"/>
<path d="M528.457 26.4824L540.633 26.4824L540.633 14.3062L528.457 14.3062L528.457 26.4824Z" fill="#00DA72"/>
<path d="M548.205 275.876L548.501 626.631L275.395 626.861V548.916L548.205 275.876Z" fill="#1D2336"/>
<path d="M80.586 341.225L80.5421 289.262C80.5361 282.087 86.3474 276.266 93.5221 276.26L145.486 276.216C152.66 276.21 158.472 270.388 158.466 263.214L158.422 211.25C158.416 204.075 164.227 198.254 171.402 198.248L223.365 198.204C230.54 198.198 236.351 192.377 236.345 185.202L236.301 133.239C236.295 126.064 242.107 120.243 249.281 120.237L301.245 120.193C308.42 120.187 314.231 114.366 314.225 107.191L314.181 55.2274C314.175 48.0527 319.986 42.2316 327.161 42.2255L379.125 42.1816C386.299 42.1755 392.111 36.3544 392.105 29.1797L392.061 -22.784C392.055 -29.9586 386.234 -35.77 379.059 -35.7639L15.3132 -35.4566C8.13851 -35.4506 2.3272 -29.6294 2.33326 -22.4547L2.64054 341.291C2.6466 348.466 8.46775 354.277 15.6424 354.271L67.6061 354.227C74.7808 354.221 80.5921 348.4 80.586 341.225H80.586Z" fill="#FF92B7"/>
<path d="M192.652 193.502L197.746 626.927L-55.0032 627.14L-55.3694 193.712L192.652 193.502Z" fill="#00DA72"/>
<path d="M137.49 138.433L27.3512 248.758L2.58625 276.336L-0.41626 0.759766L137.49 138.433Z" fill="#D2DCDC"/>
</g>
<mask id="mask1_589_55950" style="mask-type:alpha" maskUnits="userSpaceOnUse" x="65" y="66" width="420" height="420">
<path d="M467.62 468.797C513.116 423.174 463.76 300.002 357.379 193.685C250.997 87.3687 127.876 38.1667 82.3792 83.7899C36.8824 129.413 86.239 252.585 192.62 358.902C299.001 465.218 422.123 514.42 467.62 468.797Z" fill="#4042EE"/>
</mask>
<g mask="url(#mask1_589_55950)">
<path d="M384.993 555.191L553.921 385.793L162.305 -5.58648L-6.62372 163.811L384.993 555.191Z" fill="#00DA72"/>
<path d="M27.6379 303.896L275.123 55.7231L192.489 -26.8614L-54.9966 221.311L27.6379 303.896Z" fill="#FF92B7"/>
<path d="M260.517 456.445L297.182 419.678C302.244 414.602 302.237 406.379 297.166 401.311L287.985 392.135C282.914 387.067 282.907 378.843 287.969 373.767L324.634 337.001C329.696 331.924 329.689 323.701 324.618 318.633L315.436 309.457C310.366 304.389 310.359 296.166 315.421 291.089L352.085 254.323C357.148 249.247 357.141 241.023 352.07 235.955L342.888 226.779C337.817 221.712 337.81 213.488 342.873 208.412L379.537 171.645C384.599 166.569 384.593 158.346 379.522 153.278L370.34 144.102C365.269 139.034 365.262 130.811 370.325 125.734L406.989 88.9678C412.051 83.8915 420.266 83.8845 425.337 88.9523L544.698 208.241C549.769 213.309 549.776 221.532 544.713 226.609L288.062 483.973C283 489.049 274.785 489.056 269.714 483.988L260.533 474.812C255.462 469.745 255.455 461.521 260.517 456.445Z" fill="#E2F700"/>
<path d="M386.805 551.655L689.287 248.333L606.652 165.748L304.171 469.07L386.805 551.655Z" fill="#00DA72"/>
<path d="M182.53 403.697C237.982 403.697 282.935 358.696 282.935 303.183C282.935 247.671 237.982 202.669 182.53 202.669C127.078 202.669 82.125 247.671 82.125 303.183C82.125 358.696 127.078 403.697 182.53 403.697Z" fill="#00DA72"/>
<path d="M86.2674 274.851L88.828 275.591C86.4196 283.784 85.1005 292.264 84.9037 300.809L82.2388 300.747C82.4413 291.968 83.7968 283.255 86.2674 274.851V274.851ZM96.8938 250.867L96.9545 250.768C101.522 243.286 107.027 236.442 113.311 230.436L115.152 232.367C109.035 238.212 103.675 244.875 99.2227 252.169L96.8938 250.867V250.867ZM85.0479 326.814L87.6385 326.187C89.6503 334.499 92.7361 342.513 96.8104 350.005L94.4697 351.281C90.2843 343.584 87.1146 335.353 85.0479 326.814ZM134.474 214.978C142.16 210.786 150.381 207.61 158.91 205.538L159.538 208.131C151.235 210.148 143.231 213.24 135.749 217.321L134.474 214.978ZM109.904 372.47L111.832 370.629C117.678 376.763 124.341 382.136 131.637 386.6L131.001 387.774L130.267 388.889C122.754 384.292 115.909 378.772 109.904 372.47H109.904ZM184.947 202.716C193.723 202.916 202.431 204.271 210.83 206.744L210.079 209.304C201.904 206.897 193.428 205.578 184.887 205.383L184.947 202.716V202.716ZM154.625 398.276L155.001 396.996C163.208 399.414 171.668 400.734 180.191 400.934L180.129 403.602C171.371 403.396 162.68 402.039 154.295 399.569L154.625 398.276H154.625ZM233.509 219.72L234.775 217.368L234.84 217.407C242.412 222.04 249.273 227.577 255.29 233.901L253.361 235.741C247.504 229.585 240.825 224.195 233.509 219.72V219.72ZM205.541 398.205C213.845 396.195 221.851 393.108 229.337 389.031L230.61 391.375C222.921 395.563 214.697 398.733 206.167 400.799L205.541 398.205V398.205ZM268.367 256.374L270.709 255.1C274.889 262.8 278.054 271.034 280.114 279.573L277.523 280.199C275.517 271.886 272.437 263.87 268.367 256.374V256.374ZM249.944 374.001C256.082 368.143 261.458 361.464 265.923 354.15L268.22 355.505L268.19 355.554C263.611 363.053 258.089 369.913 251.783 375.932L249.944 374.001V374.001ZM280.241 305.579L282.905 305.642C282.697 314.397 281.343 323.085 278.88 331.464L278.878 331.469L276.298 330.794L276.3 330.789C278.72 322.555 280.038 314.1 280.241 305.579V305.579Z" fill="#FF92B7"/>
<path d="M88.8523 275.709L88.8958 275.561C91.2991 267.386 94.7368 259.581 99.1141 252.363L102.541 254.446C98.3445 261.368 95.0474 268.853 92.7421 276.694L92.6986 276.842L88.8523 275.709V275.709ZM84.9248 300.919L88.9336 301.013C88.7419 309.189 89.6302 317.371 91.5739 325.333L87.679 326.286C85.6516 317.982 84.7251 309.447 84.9248 300.919V300.919ZM115.094 232.478C121.257 226.592 128.179 221.526 135.669 217.419L137.595 220.94C130.411 224.878 123.772 229.737 117.862 235.382L115.094 232.478V232.478ZM96.9004 350.068L100.419 348.142C104.348 355.335 109.198 361.984 114.834 367.905L111.931 370.674C106.054 364.5 100.997 357.567 96.9004 350.068ZM159.421 208.175C167.715 206.141 176.24 205.209 184.759 205.405L184.667 209.418C176.5 209.229 168.327 210.123 160.375 212.074L159.421 208.175V208.175ZM131.786 386.682L133.869 383.252C140.795 387.466 148.286 390.775 156.136 393.088L156.235 393.117L155.103 396.967L155.004 396.938C146.821 394.527 139.009 391.077 131.786 386.682V386.682ZM208.813 213.174L209.945 209.323L210.142 209.381C218.36 211.803 226.202 215.271 233.449 219.692L231.362 223.12C224.413 218.881 216.893 215.554 209.01 213.232L208.813 213.174V213.174ZM180.379 396.899C188.543 397.097 196.717 396.212 204.673 394.27L205.623 398.169C197.325 400.195 188.799 401.118 180.282 400.912L180.379 396.899V396.899ZM250.382 238.488L253.288 235.722C259.158 241.902 264.207 248.84 268.296 256.344L264.776 258.267C260.854 251.069 256.011 244.415 250.382 238.488V238.488ZM227.462 385.428C234.649 381.499 241.294 376.647 247.211 371.008L249.976 373.915C243.806 379.795 236.877 384.854 229.384 388.951L227.462 385.428V385.428ZM273.597 281.085L277.492 280.136C279.511 288.444 280.428 296.979 280.219 305.506L276.21 305.407C276.411 297.233 275.532 289.05 273.597 281.085V281.085ZM262.552 351.959C266.774 345.015 270.089 337.5 272.404 329.626L276.265 330.709L276.25 330.759C273.837 338.968 270.38 346.803 265.977 354.046L262.552 351.959V351.959Z" fill="#FF92B7"/>
<path d="M92.7249 276.855L98.4797 278.543C96.3304 285.883 95.1557 293.491 94.9882 301.158L88.9932 301.027C89.1719 292.833 90.4273 284.7 92.7249 276.855V276.855ZM102.598 254.497L102.663 254.39C106.912 247.411 112.038 241.022 117.892 235.414L122.039 239.752C116.56 244.999 111.762 250.98 107.776 257.528L102.598 254.497ZM91.6425 325.334L97.4688 323.913C99.2825 331.366 102.059 338.548 105.721 345.263L100.458 348.14C96.5454 340.967 93.5795 333.294 91.6425 325.334V325.334ZM137.613 220.971C144.776 217.053 152.44 214.081 160.391 212.139L161.813 217.971C154.368 219.79 147.194 222.571 140.488 226.239L137.613 220.971V220.971ZM114.878 367.887L119.211 363.737C124.46 369.231 130.442 374.043 136.99 378.038L137.071 378.088L133.884 383.173C126.876 378.897 120.486 373.758 114.878 367.887V367.887ZM184.671 209.478C192.856 209.654 200.98 210.908 208.818 213.205L207.133 218.967C199.801 216.818 192.2 215.645 184.542 215.48L184.671 209.478V209.478ZM157.954 387.335C165.284 389.489 172.884 390.668 180.542 390.838L180.409 396.84C172.224 396.658 164.101 395.398 156.265 393.095L157.954 387.335V387.335ZM228.156 228.282L231.154 223.081L231.297 223.168C238.29 227.434 244.695 232.59 250.313 238.48L245.976 242.626C240.719 237.114 234.723 232.288 228.156 228.282V228.282ZM203.273 388.363C210.718 386.551 217.895 383.774 224.603 380.11L227.475 385.38C220.308 389.294 212.642 392.26 204.69 394.196L203.273 388.363V388.363ZM259.454 261.11L264.719 258.236C268.626 265.411 271.587 273.086 273.519 281.048L267.691 282.466C265.882 275.011 263.111 267.826 259.454 261.11V261.11ZM243.063 366.61C248.544 361.367 253.345 355.393 257.333 348.852L257.414 348.721L259.981 350.349L262.561 351.794L262.491 351.916C258.223 358.926 253.081 365.33 247.206 370.951L243.063 366.61H243.063ZM259.981 350.349L259.947 350.327L259.981 350.349ZM270.155 305.222L276.151 305.358C275.966 313.552 274.704 321.684 272.401 329.527L266.648 327.834C268.802 320.497 269.982 312.889 270.155 305.222V305.222Z" fill="#FF92B7"/>
<path d="M98.6533 278.576L98.7033 278.407C100.843 271.128 103.922 264.139 107.841 257.676L114.676 261.83C111.116 267.701 108.318 274.052 106.362 280.707L98.6533 278.576V278.576ZM95.1366 301.152L103.13 301.341C102.967 308.274 103.72 315.214 105.37 321.969L97.6027 323.87C95.7866 316.432 94.9566 308.789 95.1366 301.152V301.152ZM122.152 239.868C127.669 234.598 133.867 230.062 140.574 226.385L144.415 233.405C138.319 236.748 132.685 240.871 127.671 245.659L122.152 239.868V239.868ZM105.859 345.162L112.874 341.321C116.209 347.425 120.324 353.067 125.105 358.09L119.317 363.612C114.055 358.084 109.527 351.877 105.859 345.162ZM161.84 218.109C169.27 216.287 176.904 215.452 184.532 215.628L184.348 223.63C177.422 223.47 170.49 224.229 163.743 225.883L161.84 218.109V218.109ZM137.099 377.948L141.252 371.108C147.127 374.683 153.483 377.491 160.144 379.453L158.432 385.528L157.942 387.147C150.561 384.973 143.567 381.884 137.099 377.948V377.948ZM204.829 226.816L207.087 219.137L207.259 219.188C214.616 221.355 221.638 224.462 228.128 228.421L223.967 235.257C218.072 231.66 211.691 228.837 205.001 226.866L204.829 226.816ZM180.713 382.687C187.639 382.854 194.572 382.104 201.32 380.457L203.215 388.233C195.784 390.047 188.149 390.873 180.521 390.689L180.713 382.687V382.687ZM240.1 248.292L245.894 242.776C251.15 248.309 255.671 254.521 259.332 261.241L252.313 265.073C248.985 258.966 244.876 253.32 240.1 248.292V248.292ZM220.656 372.954C226.755 369.619 232.393 365.502 237.413 360.719L242.925 366.516C237.402 371.78 231.199 376.31 224.489 379.979L220.656 372.954H220.656ZM259.796 284.434L267.565 282.542C269.373 289.98 270.194 297.624 270.006 305.261L262.013 305.064C262.184 298.13 261.438 291.189 259.796 284.434V284.434ZM250.426 344.562C254.007 338.671 256.819 332.296 258.784 325.613L266.467 327.829L266.454 327.873C264.293 335.223 261.198 342.238 257.256 348.723L250.426 344.562Z" fill="#FF92B7"/>
<path d="M106.209 280.801L115.8 283.616C114.094 289.442 113.161 295.482 113.029 301.568L103.036 301.35C103.188 294.385 104.255 287.471 106.209 280.801V280.801ZM114.588 261.818L114.673 261.677C118.265 255.778 122.621 250.348 127.597 245.582L134.507 252.81C130.158 256.977 126.348 261.726 123.182 266.926L114.588 261.818V261.818ZM105.287 322.007L114.998 319.638C116.438 325.557 118.643 331.261 121.551 336.593L112.779 341.389C109.454 335.292 106.933 328.771 105.287 322.007ZM144.362 233.304C150.451 229.973 156.964 227.447 163.72 225.798L166.088 235.518C160.178 236.961 154.48 239.171 149.154 242.084L144.362 233.304V233.304ZM125.037 358.175L132.26 351.26C136.407 355.6 141.131 359.405 146.303 362.569L146.465 362.668L141.179 371.16L143.735 367.055L141.334 371.252L141.177 371.159C135.235 367.534 129.804 363.165 125.037 358.175H125.037ZM184.354 223.536C191.311 223.685 198.218 224.751 204.881 226.704L202.072 236.307C196.252 234.601 190.219 233.67 184.139 233.539L184.354 223.536V223.536ZM163.026 369.999C168.846 371.709 174.879 372.644 180.958 372.78L180.736 382.783C173.779 382.628 166.874 381.557 160.211 379.6L163.026 369.999ZM218.767 243.704L223.866 235.098L224.01 235.186C229.926 238.795 235.369 243.177 240.146 248.184L232.919 255.095C228.742 250.718 223.981 246.885 218.767 243.704V243.704ZM199.01 370.814C204.923 369.374 210.622 367.169 215.949 364.26L220.735 373.043C214.645 376.369 208.131 378.89 201.372 380.536L199.01 370.814H199.01ZM243.617 269.769L252.393 264.98C255.714 271.08 258.23 277.602 259.871 284.367L250.159 286.729C248.722 280.81 246.522 275.104 243.617 269.769V269.769ZM230.603 353.544C234.967 349.368 238.79 344.607 241.964 339.394L246.245 341.975L250.486 344.62L250.472 344.643C246.872 350.557 242.502 356 237.509 360.777L230.603 353.544V353.544ZM252.117 304.8L262.109 305.026C261.952 311.991 260.879 318.903 258.922 325.572L249.332 322.751C251.043 316.926 251.979 310.886 252.117 304.8Z" fill="#FF92B7"/>
<path d="M115.505 283.541L115.543 283.411C117.258 277.576 119.712 272.003 122.835 266.847L133.09 273.073C130.504 277.342 128.471 281.961 127.049 286.801L127.01 286.931L115.505 283.541V283.541ZM112.702 301.588L124.693 301.864C124.576 306.914 125.127 311.968 126.33 316.886L114.681 319.742C113.227 313.8 112.561 307.692 112.702 301.588V301.588ZM134.264 252.608C138.671 248.395 143.62 244.768 148.976 241.828L154.742 252.356C150.302 254.793 146.199 257.799 142.548 261.291L134.264 252.608V252.608ZM121.284 336.75L131.804 330.985C134.235 335.43 137.235 339.54 140.721 343.199L132.041 351.485C127.835 347.07 124.216 342.113 121.284 336.75V336.75ZM165.961 235.206C171.897 233.747 177.997 233.076 184.094 233.212L183.828 245.215C178.783 245.103 173.734 245.658 168.822 246.866L165.961 235.206V235.206ZM146.258 362.938L152.484 352.675C156.759 355.275 161.384 357.316 166.232 358.744L162.933 370.288L162.846 370.263C157.002 368.541 151.421 366.077 146.258 362.938ZM198.74 247.524L202.126 236.006L202.255 236.044C208.177 237.788 213.786 240.27 218.973 243.433L212.732 253.686C208.438 251.067 203.789 249.011 198.914 247.575L198.74 247.524ZM181.239 361.102C186.281 361.222 191.33 360.674 196.245 359.473L199.09 371.137C193.151 372.588 187.049 373.251 180.953 373.105L181.239 361.102V361.102ZM224.481 263.18L233.172 254.906C237.371 259.326 240.984 264.289 243.909 269.656L233.381 275.407C230.955 270.957 227.961 266.843 224.481 263.18V263.18ZM210.332 354.004C214.776 351.572 218.883 348.572 222.54 345.085L230.811 353.78C226.399 357.987 221.444 361.607 216.084 364.539L210.332 354.004ZM238.835 289.513L250.488 286.674C251.934 292.619 252.591 298.728 252.442 304.831L240.452 304.538C240.575 299.488 240.032 294.433 238.835 289.513V289.513ZM232.014 333.317C234.62 329.027 236.667 324.384 238.098 319.518L249.616 322.864L249.604 322.908C247.879 328.775 245.408 334.376 242.26 339.556L232.014 333.317V333.317Z" fill="#FF92B7"/>
<path d="M127.124 287.006L139.464 290.609C138.369 294.368 137.773 298.263 137.692 302.188L124.842 301.923C124.945 296.869 125.714 291.85 127.124 287.006ZM133.177 273.237L133.279 273.069C135.88 268.797 139.02 264.877 142.605 261.431L151.506 270.713C148.721 273.391 146.278 276.44 144.247 279.777L133.177 273.237V273.237ZM126.494 316.906L138.978 313.847C139.912 317.665 141.339 321.344 143.219 324.782L131.945 330.962C129.527 326.541 127.693 321.812 126.494 316.906V316.906ZM154.759 252.501C159.171 250.077 163.893 248.237 168.794 247.031L171.861 259.527C168.047 260.465 164.372 261.897 160.94 263.781L154.759 252.501V252.501ZM140.856 343.137L150.136 334.233C152.816 337.033 155.871 339.488 159.216 341.528L159.309 341.585L152.564 352.538C148.233 349.896 144.306 346.74 140.856 343.137V343.137ZM183.76 245.365C188.809 245.465 193.823 246.23 198.662 247.637L195.075 259.994C191.319 258.901 187.427 258.307 183.506 258.23L183.76 245.365V245.365ZM169.998 346.305C173.752 347.404 177.644 348.005 181.564 348.088L181.289 360.952C176.241 360.844 171.228 360.071 166.39 358.655L169.998 346.305ZM205.807 264.717L212.449 253.701L212.639 253.817C216.941 256.441 220.89 259.62 224.356 263.254L215.061 272.14C212.368 269.318 209.296 266.845 205.93 264.792L205.807 264.717ZM193.212 346.811C197.028 345.879 200.704 344.453 204.14 342.574L210.303 353.866C205.886 356.281 201.16 358.114 196.258 359.311L193.212 346.811ZM221.963 281.602L233.247 275.442C235.658 279.867 237.484 284.599 238.675 289.507L226.185 292.545C225.258 288.726 223.838 285.044 221.963 281.602ZM213.586 335.657C216.37 332.991 218.813 329.953 220.848 326.627L220.949 326.462L226.494 329.907L231.979 333.061L231.875 333.239C229.249 337.552 226.085 341.494 222.471 344.955L213.586 335.657ZM226.494 329.907L226.409 329.854L226.494 329.907ZM227.452 304.207L240.302 304.493C240.19 309.549 239.413 314.567 237.994 319.407L225.661 315.783C226.762 312.027 227.365 308.133 227.452 304.207V304.207Z" fill="#FF92B7"/>
</g>
<path d="M342.882 294.753C383.733 150.47 384.823 24.4379 345.317 13.2526C305.811 2.06727 240.669 109.964 199.818 254.247C158.968 398.53 157.878 524.562 197.384 535.747C236.89 546.932 302.032 439.035 342.882 294.753Z" stroke="#87A0AF" stroke-width="2" stroke-miterlimit="10"/>
<path d="M25.4768 273.988C25.4768 413.373 138.47 526.366 277.855 526.366C417.239 526.366 530.233 413.373 530.233 273.988C530.233 134.603 417.305 21.5737 277.92 21.5737" stroke="#87A0AF" stroke-width="2" stroke-miterlimit="10"/>
<path d="M325.861 524.972C327.346 524.972 328.55 523.768 328.55 522.283C328.55 520.798 327.346 519.594 325.861 519.594C324.376 519.594 323.173 520.798 323.173 522.283C323.173 523.768 324.376 524.972 325.861 524.972Z" fill="#87A0AF"/>
<path d="M30.8807 335.695C35.7314 335.695 39.6636 331.763 39.6636 326.912C39.6636 322.062 35.7314 318.13 30.8807 318.13C26.0301 318.13 22.0979 322.062 22.0979 326.912C22.0979 331.763 26.0301 335.695 30.8807 335.695Z" fill="#87A0AF"/>
<path d="M33.6412 346.946C36.8551 346.946 39.4605 344.34 39.4605 341.126C39.4605 337.912 36.8551 335.307 33.6412 335.307C30.4272 335.307 27.8218 337.912 27.8218 341.126C27.8218 344.34 30.4272 346.946 33.6412 346.946Z" fill="#87A0AF"/>
<path d="M37.0028 354.345C39.2106 354.345 41.0004 352.556 41.0004 350.348C41.0004 348.14 39.2106 346.35 37.0028 346.35C34.7949 346.35 33.0051 348.14 33.0051 350.348C33.0051 352.556 34.7949 354.345 37.0028 354.345Z" fill="#87A0AF"/>
<path d="M38.7263 358.398C39.9515 358.398 40.9448 357.405 40.9448 356.179C40.9448 354.954 39.9515 353.961 38.7263 353.961C37.5011 353.961 36.5078 354.954 36.5078 356.179C36.5078 357.405 37.5011 358.398 38.7263 358.398Z" fill="#87A0AF"/>
<path d="M325.861 28.7613C327.346 28.7613 328.55 27.5575 328.55 26.0725C328.55 24.5876 327.346 23.3838 325.861 23.3838C324.376 23.3838 323.173 24.5876 323.173 26.0725C323.173 27.5575 324.376 28.7613 325.861 28.7613Z" fill="#87A0AF"/>
<path d="M277.977 24.4539C279.462 24.4539 280.665 23.2501 280.665 21.7652C280.665 20.2802 279.462 19.0764 277.977 19.0764C276.492 19.0764 275.288 20.2802 275.288 21.7652C275.288 23.2501 276.492 24.4539 277.977 24.4539Z" fill="#87A0AF"/>
<path d="M25.9253 277.165C27.4103 277.165 28.6141 275.961 28.6141 274.476C28.6141 272.991 27.4103 271.787 25.9253 271.787C24.4404 271.787 23.2366 272.991 23.2366 274.476C23.2366 275.961 24.4404 277.165 25.9253 277.165Z" fill="#87A0AF"/>
<path d="M340.113 521.172C341.598 521.172 342.801 519.968 342.801 518.483C342.801 516.998 341.598 515.794 340.113 515.794C338.628 515.794 337.424 516.998 337.424 518.483C337.424 519.968 338.628 521.172 340.113 521.172Z" fill="#87A0AF"/>
<path d="M354.459 517.086C355.944 517.086 357.148 515.882 357.148 514.397C357.148 512.912 355.944 511.708 354.459 511.708C352.974 511.708 351.77 512.912 351.77 514.397C351.77 515.882 352.974 517.086 354.459 517.086Z" fill="#87A0AF"/>
<path d="M367.032 512.716C368.517 512.716 369.721 511.512 369.721 510.027C369.721 508.542 368.517 507.338 367.032 507.338C365.547 507.338 364.343 508.542 364.343 510.027C364.343 511.512 365.547 512.716 367.032 512.716Z" fill="#87A0AF"/>
<path d="M381.473 506.762C382.958 506.762 384.162 505.558 384.162 504.073C384.162 502.588 382.958 501.384 381.473 501.384C379.988 501.384 378.785 502.588 378.785 504.073C378.785 505.558 379.988 506.762 381.473 506.762Z" fill="#87A0AF"/>
<path d="M395.662 499.541C397.147 499.541 398.35 498.337 398.35 496.852C398.35 495.367 397.147 494.164 395.662 494.164C394.177 494.164 392.973 495.367 392.973 496.852C392.973 498.337 394.177 499.541 395.662 499.541Z" fill="#87A0AF"/>
<path d="M408.963 492.194C410.448 492.194 411.651 490.99 411.651 489.505C411.651 488.02 410.448 486.816 408.963 486.816C407.478 486.816 406.274 488.02 406.274 489.505C406.274 490.99 407.478 492.194 408.963 492.194Z" fill="#87A0AF"/>
<path d="M422.814 482.744C424.299 482.744 425.503 481.541 425.503 480.056C425.503 478.571 424.299 477.367 422.814 477.367C421.329 477.367 420.125 478.571 420.125 480.056C420.125 481.541 421.329 482.744 422.814 482.744Z" fill="#87A0AF"/>
<path d="M339.923 32.0862C341.408 32.0862 342.611 30.8824 342.611 29.3975C342.611 27.9125 341.408 26.7087 339.923 26.7087C338.438 26.7087 337.234 27.9125 337.234 29.3975C337.234 30.8824 338.438 32.0862 339.923 32.0862Z" fill="#87A0AF"/>
<path d="M354.459 36.5518C355.944 36.5518 357.148 35.348 357.148 33.8631C357.148 32.3781 355.944 31.1743 354.459 31.1743C352.974 31.1743 351.77 32.3781 351.77 33.8631C351.77 35.348 352.974 36.5518 354.459 36.5518Z" fill="#87A0AF"/>
<path d="M366.905 40.7322C368.39 40.7322 369.594 39.5284 369.594 38.0435C369.594 36.5585 368.39 35.3547 366.905 35.3547C365.42 35.3547 364.217 36.5585 364.217 38.0435C364.217 39.5284 365.42 40.7322 366.905 40.7322Z" fill="#87A0AF"/>
<path d="M437.649 478.275C442.499 478.275 446.431 474.343 446.431 469.493C446.431 464.642 442.499 460.71 437.649 460.71C432.798 460.71 428.866 464.642 428.866 469.493C428.866 474.343 432.798 478.275 437.649 478.275Z" fill="#87A0AF"/>
<path d="M449.016 466.343C452.23 466.343 454.835 463.738 454.835 460.524C454.835 457.31 452.23 454.705 449.016 454.705C445.802 454.705 443.196 457.31 443.196 460.524C443.196 463.738 445.802 466.343 449.016 466.343Z" fill="#87A0AF"/>
<path d="M455.67 457.307C457.878 457.307 459.668 455.517 459.668 453.309C459.668 451.101 457.878 449.312 455.67 449.312C453.463 449.312 451.673 451.101 451.673 453.309C451.673 455.517 453.463 457.307 455.67 457.307Z" fill="#87A0AF"/>
<path d="M460.064 451.323C461.289 451.323 462.282 450.329 462.282 449.104C462.282 447.879 461.289 446.886 460.064 446.886C458.838 446.886 457.845 447.879 457.845 449.104C457.845 450.329 458.838 451.323 460.064 451.323Z" fill="#87A0AF"/>
<path d="M168.483 511.522C173.334 511.522 177.267 507.589 177.267 502.737C177.267 497.886 173.334 493.953 168.483 493.953C163.632 493.953 159.699 497.886 159.699 502.737C159.699 507.589 163.632 511.522 168.483 511.522Z" fill="#87A0AF"/>
<path d="M181.527 514.847C184.741 514.847 187.347 512.242 187.347 509.027C187.347 505.813 184.741 503.207 181.527 503.207C178.312 503.207 175.707 505.813 175.707 509.027C175.707 512.242 178.312 514.847 181.527 514.847Z" fill="#87A0AF"/>
<path d="M190.929 515.847C193.137 515.847 194.927 514.057 194.927 511.849C194.927 509.64 193.137 507.85 190.929 507.85C188.721 507.85 186.931 509.64 186.931 511.849C186.931 514.057 188.721 515.847 190.929 515.847Z" fill="#87A0AF"/>
<path d="M196.635 516.174C197.86 516.174 198.853 515.181 198.853 513.956C198.853 512.73 197.86 511.737 196.635 511.737C195.409 511.737 194.416 512.73 194.416 513.956C194.416 515.181 195.409 516.174 196.635 516.174Z" fill="#87A0AF"/>
<path d="M249.353 526.931C250.578 526.931 251.571 525.937 251.571 524.712C251.571 523.487 250.578 522.493 249.353 522.493C248.127 522.493 247.134 523.487 247.134 524.712C247.134 525.937 248.127 526.931 249.353 526.931Z" fill="#87A0AF"/>
<path d="M301.701 527.47C302.926 527.47 303.92 526.476 303.92 525.251C303.92 524.026 302.926 523.032 301.701 523.032C300.475 523.032 299.482 524.026 299.482 525.251C299.482 526.476 300.475 527.47 301.701 527.47Z" fill="#87A0AF"/>
<path d="M285.894 532.636C289.108 532.636 291.714 530.031 291.714 526.816C291.714 523.602 289.108 520.996 285.894 520.996C282.68 520.996 280.074 523.602 280.074 526.816C280.074 530.031 282.68 532.636 285.894 532.636Z" fill="#87A0AF"/>
<path d="M295.631 529.568C297.839 529.568 299.629 527.778 299.629 525.57C299.629 523.362 297.839 521.572 295.631 521.572C293.423 521.572 291.633 523.362 291.633 525.57C291.633 527.778 293.423 529.568 295.631 529.568Z" fill="#87A0AF"/>
<path d="M271.419 535.16C276.27 535.16 280.203 531.227 280.203 526.376C280.203 521.525 276.27 517.592 271.419 517.592C266.568 517.592 262.635 521.525 262.635 526.376C262.635 531.227 266.568 535.16 271.419 535.16Z" fill="#87A0AF"/>
<path d="M243.245 528.233C245.453 528.233 247.243 526.443 247.243 524.235C247.243 522.026 245.453 520.236 243.245 520.236C241.037 520.236 239.247 522.026 239.247 524.235C239.247 526.443 241.037 528.233 243.245 528.233Z" fill="#87A0AF"/>
<path d="M219.363 528.526C224.214 528.526 228.147 524.593 228.147 519.742C228.147 514.891 224.214 510.958 219.363 510.958C214.511 510.958 210.579 514.891 210.579 519.742C210.579 524.593 214.511 528.526 219.363 528.526Z" fill="#87A0AF"/>
<path d="M233.635 528.427C236.85 528.427 239.456 525.821 239.456 522.607C239.456 519.392 236.85 516.786 233.635 516.786C230.421 516.786 227.815 519.392 227.815 522.607C227.815 525.821 230.421 528.427 233.635 528.427Z" fill="#87A0AF"/>
<path d="M408.81 353.448C419.579 353.448 428.308 344.719 428.308 333.95C428.308 323.182 419.579 314.452 408.81 314.452C398.042 314.452 389.312 323.182 389.312 333.95C389.312 344.719 398.042 353.448 408.81 353.448Z" fill="#FF2C00"/>
<path d="M828.006 548.619C978.674 548.619 1100.82 426.478 1100.82 275.809C1100.82 125.141 978.674 3 828.006 3C677.337 3 555.196 125.141 555.196 275.809C555.196 426.478 677.337 548.619 828.006 548.619Z" fill="#D2DCDC"/>
<mask id="mask2_589_55950" style="mask-type:alpha" maskUnits="userSpaceOnUse" x="555" y="3" width="546" height="546">
<path d="M828.006 548.619C978.674 548.619 1100.82 426.478 1100.82 275.809C1100.82 125.141 978.674 3 828.006 3C677.337 3 555.196 125.141 555.196 275.809C555.196 426.478 677.337 548.619 828.006 548.619Z" fill="#D2DCDC"/>
</mask>
<g mask="url(#mask2_589_55950)">
<path d="M671.536 172.375H516.384V274.516H671.536V172.375Z" fill="#00DA72"/>
<path d="M624.881 652.653V600.69C624.881 593.515 630.697 587.699 637.872 587.699H689.835C697.01 587.699 702.826 581.883 702.826 574.708V522.744C702.826 515.57 708.642 509.753 715.817 509.753H767.781C774.955 509.753 780.772 503.937 780.772 496.762V444.799C780.772 437.624 786.588 431.808 793.763 431.808H845.726C852.901 431.808 858.717 425.992 858.717 418.817V366.853C858.717 359.679 864.533 353.862 871.708 353.862H923.672C930.846 353.862 936.663 348.046 936.663 340.871V288.908C936.663 281.733 930.846 275.917 923.672 275.917H559.926C552.751 275.917 546.935 281.733 546.935 288.908V652.653C546.935 659.828 552.751 665.644 559.926 665.644H611.89C619.064 665.644 624.881 659.828 624.881 652.653V652.653Z" fill="#E2F700"/>
<path d="M1178.37 80.5762H827.981V275.809H1178.37V80.5762Z" fill="#FF92B7"/>
<path d="M1061.81 431.7H399.305V548.619H1061.81V431.7Z" fill="#00DA72"/>
<path d="M1023.21 3H827.981V548.619H1023.21V3Z" fill="#00DA72"/>
<path d="M1011.97 540.026V529.2H1001.14V540.026H1011.97Z" fill="#00DA72"/>
<path d="M1022.8 529.2V518.374H1011.97V529.2H1022.8Z" fill="#00DA72"/>
<path d="M1022.8 550.851V540.026H1011.97V550.851H1022.8Z" fill="#00DA72"/>
<path d="M1001.14 529.2V518.374H990.318V529.2H1001.14Z" fill="#00DA72"/>
<path d="M990.318 540.026V529.2H979.493V540.026H990.318Z" fill="#00DA72"/>
<path d="M968.667 540.026V529.2H957.841V540.026H968.667Z" fill="#00DA72"/>
<path d="M1001.14 550.851V540.026H990.318V550.851H1001.14Z" fill="#00DA72"/>
<path d="M979.493 529.2V518.374H968.667V529.2H979.493Z" fill="#00DA72"/>
<path d="M979.493 550.851V540.026H968.667V550.851H979.493Z" fill="#00DA72"/>
<path d="M957.841 529.2V518.374H947.015V529.2H957.841Z" fill="#00DA72"/>
<path d="M947.015 540.026V529.2H936.189V540.026H947.015Z" fill="#00DA72"/>
<path d="M925.363 540.026V529.2H914.538V540.026H925.363Z" fill="#00DA72"/>
<path d="M957.841 550.851V540.026H947.015V550.851H957.841Z" fill="#00DA72"/>
<path d="M936.189 529.2V518.374H925.364V529.2H936.189Z" fill="#00DA72"/>
<path d="M936.189 550.851V540.026H925.364V550.851H936.189Z" fill="#00DA72"/>
<path d="M914.538 529.2V518.374H903.712V529.2H914.538Z" fill="#00DA72"/>
<path d="M903.712 540.026V529.2H892.886V540.026H903.712Z" fill="#00DA72"/>
<path d="M882.06 540.026V529.2H871.235V540.026H882.06Z" fill="#00DA72"/>
<path d="M914.538 550.851V540.026H903.712V550.851H914.538Z" fill="#00DA72"/>
<path d="M892.886 529.2V518.374H882.06V529.2H892.886Z" fill="#00DA72"/>
<path d="M892.886 550.851V540.026H882.06V550.851H892.886Z" fill="#00DA72"/>
<path d="M871.235 529.2V518.374H860.409V529.2H871.235Z" fill="#00DA72"/>
<path d="M860.409 540.026V529.2H849.583V540.026H860.409Z" fill="#00DA72"/>
<path d="M838.757 540.026V529.2H827.931V540.026H838.757Z" fill="#00DA72"/>
<path d="M871.235 550.851V540.026H860.409V550.851H871.235Z" fill="#00DA72"/>
<path d="M849.583 529.2V518.374H838.757V529.2H849.583Z" fill="#00DA72"/>
<path d="M849.583 550.851V540.026H838.757V550.851H849.583Z" fill="#00DA72"/>
<path d="M1011.97 453.415V442.59H1001.14V453.415H1011.97Z" fill="#00DA72"/>
<path d="M1022.8 442.59V431.764H1011.97V442.59H1022.8Z" fill="#00DA72"/>
<path d="M1022.8 464.242V453.416H1011.97V464.242H1022.8Z" fill="#00DA72"/>
<path d="M1011.97 475.067V464.241H1001.14V475.067H1011.97Z" fill="#00DA72"/>
<path d="M1011.97 496.719V485.893H1001.14V496.719H1011.97Z" fill="#00DA72"/>
<path d="M1022.8 485.893V475.067H1011.97V485.893H1022.8Z" fill="#00DA72"/>
<path d="M1022.8 507.545V496.719H1011.97V507.545H1022.8Z" fill="#00DA72"/>
<path d="M1011.97 518.37V507.544H1001.14V518.37H1011.97Z" fill="#00DA72"/>
<path d="M1001.14 442.59V431.764H990.318V442.59H1001.14Z" fill="#00DA72"/>
<path d="M990.318 453.415V442.59H979.492V453.415H990.318Z" fill="#00DA72"/>
<path d="M968.667 453.415V442.59H957.841V453.415H968.667Z" fill="#00DA72"/>
<path d="M1001.14 464.242V453.416H990.318V464.242H1001.14Z" fill="#00DA72"/>
<path d="M979.493 442.59V431.764H968.667V442.59H979.493Z" fill="#00DA72"/>
<path d="M979.493 464.242V453.416H968.667V464.242H979.493Z" fill="#00DA72"/>
<path d="M990.318 475.068V464.242H979.492V475.068H990.318Z" fill="#00DA72"/>
<path d="M968.667 475.068V464.242H957.841V475.068H968.667Z" fill="#00DA72"/>
<path d="M1001.14 485.893V475.067H990.318V485.893H1001.14Z" fill="#00DA72"/>
<path d="M990.318 496.719V485.893H979.492V496.719H990.318Z" fill="#00DA72"/>
<path d="M968.667 496.719V485.893H957.841V496.719H968.667Z" fill="#00DA72"/>
<path d="M1001.14 507.545V496.719H990.318V507.545H1001.14Z" fill="#00DA72"/>
<path d="M979.492 485.893V475.067H968.667V485.893H979.492Z" fill="#00DA72"/>
<path d="M979.493 507.545V496.719H968.667V507.545H979.493Z" fill="#00DA72"/>
<path d="M990.318 518.371V507.545H979.492V518.371H990.318Z" fill="#00DA72"/>
<path d="M968.667 518.371V507.545H957.841V518.371H968.667Z" fill="#00DA72"/>
<path d="M957.841 442.59V431.764H947.015V442.59H957.841Z" fill="#00DA72"/>
<path d="M947.015 453.416V442.59H936.19V453.416H947.015Z" fill="#00DA72"/>
<path d="M925.363 453.415V442.59H914.538V453.415H925.363Z" fill="#00DA72"/>
<path d="M957.841 464.242V453.416H947.015V464.242H957.841Z" fill="#00DA72"/>
<path d="M936.189 442.59V431.764H925.364V442.59H936.189Z" fill="#00DA72"/>
<path d="M936.189 464.242V453.416H925.364V464.242H936.189Z" fill="#00DA72"/>
<path d="M947.015 475.068V464.242H936.189V475.068H947.015Z" fill="#00DA72"/>
<path d="M925.363 475.068V464.242H914.538V475.068H925.363Z" fill="#00DA72"/>
<path d="M957.841 485.893V475.067H947.015V485.893H957.841Z" fill="#00DA72"/>
<path d="M947.015 496.719V485.893H936.189V496.719H947.015Z" fill="#00DA72"/>
<path d="M925.363 496.719V485.893H914.538V496.719H925.363Z" fill="#00DA72"/>
<path d="M957.841 507.545V496.719H947.015V507.545H957.841Z" fill="#00DA72"/>
<path d="M936.189 485.893V475.067H925.364V485.893H936.189Z" fill="#00DA72"/>
<path d="M936.189 507.545V496.719H925.364V507.545H936.189Z" fill="#00DA72"/>
<path d="M947.015 518.371V507.545H936.189V518.371H947.015Z" fill="#00DA72"/>
<path d="M925.363 518.371V507.545H914.538V518.371H925.363Z" fill="#00DA72"/>
<path d="M914.538 442.59V431.764H903.712V442.59H914.538Z" fill="#00DA72"/>
<path d="M903.712 453.415V442.59H892.886V453.415H903.712Z" fill="#00DA72"/>
<path d="M882.061 453.415V442.59H871.235V453.415H882.061Z" fill="#00DA72"/>
<path d="M914.538 464.242V453.416H903.712V464.242H914.538Z" fill="#00DA72"/>
<path d="M892.886 442.59V431.764H882.06V442.59H892.886Z" fill="#00DA72"/>
<path d="M892.886 464.242V453.416H882.06V464.242H892.886Z" fill="#00DA72"/>
<path d="M903.712 475.067V464.241H892.886V475.067H903.712Z" fill="#00DA72"/>
<path d="M882.061 475.068V464.242H871.235V475.068H882.061Z" fill="#00DA72"/>
<path d="M914.538 485.893V475.067H903.712V485.893H914.538Z" fill="#00DA72"/>
<path d="M903.712 496.719V485.893H892.886V496.719H903.712Z" fill="#00DA72"/>
<path d="M882.061 496.719V485.893H871.235V496.719H882.061Z" fill="#00DA72"/>
<path d="M914.538 507.545V496.719H903.712V507.545H914.538Z" fill="#00DA72"/>
<path d="M892.886 485.893V475.067H882.06V485.893H892.886Z" fill="#00DA72"/>
<path d="M892.886 507.545V496.719H882.06V507.545H892.886Z" fill="#00DA72"/>
<path d="M903.712 518.371V507.545H892.886V518.371H903.712Z" fill="#00DA72"/>
<path d="M882.061 518.37V507.544H871.235V518.37H882.061Z" fill="#00DA72"/>
<path d="M871.234 442.59V431.764H860.409V442.59H871.234Z" fill="#00DA72"/>
<path d="M860.408 453.415V442.59H849.583V453.415H860.408Z" fill="#00DA72"/>
<path d="M838.757 453.416V442.59H827.931V453.416H838.757Z" fill="#00DA72"/>
<path d="M871.234 464.242V453.416H860.409V464.242H871.234Z" fill="#00DA72"/>
<path d="M849.583 442.59V431.764H838.757V442.59H849.583Z" fill="#00DA72"/>
<path d="M849.583 464.242V453.416H838.757V464.242H849.583Z" fill="#00DA72"/>
<path d="M860.408 475.068V464.242H849.583V475.068H860.408Z" fill="#00DA72"/>
<path d="M838.757 475.068V464.242H827.931V475.068H838.757Z" fill="#00DA72"/>
<path d="M871.234 485.893V475.067H860.409V485.893H871.234Z" fill="#00DA72"/>
<path d="M860.409 496.719V485.893H849.583V496.719H860.409Z" fill="#00DA72"/>
<path d="M838.757 496.719V485.893H827.931V496.719H838.757Z" fill="#00DA72"/>
<path d="M871.234 507.545V496.719H860.409V507.545H871.234Z" fill="#00DA72"/>
<path d="M849.583 485.893V475.067H838.757V485.893H849.583Z" fill="#00DA72"/>
<path d="M849.583 507.545V496.719H838.757V507.545H849.583Z" fill="#00DA72"/>
<path d="M860.408 518.37V507.544H849.583V518.37H860.408Z" fill="#00DA72"/>
<path d="M838.757 518.371V507.545H827.931V518.371H838.757Z" fill="#00DA72"/>
<path d="M741.826 3.49612C736.562 4.79653 733.856 5.52092 728.203 7.21151L734.271 1.14306C739.819 -1.23483 742.432 -2.26267 747.461 -4.12036C745.25 -1.11709 744.166 0.362845 741.826 3.49613V3.49612Z" fill="#00DA72"/>
<path d="M749.132 10.06C743.782 10.6544 741.076 10.9826 735.54 11.7628C738.271 8.23941 739.485 6.62941 741.826 3.49613C747.089 2.19572 749.628 1.63843 754.613 0.616699C752.569 4.24534 751.51 6.09688 749.132 10.06V10.06Z" fill="#00DA72"/>
<path d="M734.271 32.8474H718.418C722.71 27.7635 724.574 25.5034 727.954 21.3298C733.837 20.9954 736.747 20.8592 742.537 20.6177C739.602 25.138 737.986 27.5468 734.271 32.8474Z" fill="#00DA72"/>
<path d="M727.955 21.3295C722.072 21.6639 719.106 21.8558 713.093 22.3203C716.808 18.6049 718.418 16.9949 721.391 14.0227C727.187 12.9824 730.004 12.5427 735.54 11.7625C732.809 15.2859 731.336 17.156 727.955 21.3295V21.3295Z" fill="#00DA72"/>
<path d="M756.935 20.0911C751.201 20.2768 748.328 20.3759 742.538 20.6174C745.473 16.0971 746.755 14.0227 749.132 10.0596C754.483 9.46516 757.114 9.2113 762.353 8.72827C760.402 13.0567 759.35 15.2983 756.935 20.0911V20.0911Z" fill="#00DA72"/>
<path d="M775.388 7.58293C770.186 8.02879 767.592 8.24547 762.353 8.72849C764.303 4.40006 765.17 2.34419 766.842 -1.70556C771.66 -2.56011 774.031 -2.95022 778.793 -3.74902C777.53 0.684668 776.874 2.92631 775.388 7.58293V7.58293Z" fill="#00DA72"/>
<path d="M765.976 32.8472H750.123C753.188 27.4042 754.52 24.884 756.935 20.0912C762.669 19.9054 765.523 19.8249 771.239 19.6577C769.381 24.6859 768.353 27.2989 765.976 32.8472V32.8472Z" fill="#00DA72"/>
<path d="M801.643 5.10607C796.292 5.7006 793.661 5.95444 788.422 6.43747C789.444 1.45266 789.89 -0.974813 790.744 -5.79237C795.562 -6.64692 797.989 -7.0927 802.974 -8.1145C802.491 -2.87584 802.237 -0.244025 801.643 5.10607V5.10607Z" fill="#00DA72"/>
<path d="M797.68 32.8475H781.827C783.518 27.1939 784.242 24.488 785.543 19.2246C791.277 19.0388 794.15 18.9398 799.94 18.6982C799.16 24.2342 798.72 27.0515 797.68 32.8475V32.8475Z" fill="#00DA72"/>
<path d="M785.543 19.2242C779.809 19.41 776.954 19.4905 771.239 19.6577C773.097 14.6295 773.902 12.2394 775.388 7.58275C780.589 7.13697 783.184 6.92021 788.422 6.43726C787.4 11.422 786.843 13.9607 785.543 19.2242V19.2242Z" fill="#00DA72"/>
<path d="M814.523 17.9856C808.64 18.32 805.73 18.4562 799.94 18.6977C800.72 13.1618 801.048 10.4559 801.643 5.10569C806.993 4.51124 809.699 4.18305 815.235 3.40283C814.993 9.19261 814.857 12.103 814.523 17.9856Z" fill="#00DA72"/>
<path d="M829.384 1.14308C823.588 2.18339 820.771 2.62301 815.235 3.40323C815.476 -2.38655 815.575 -5.25981 815.761 -10.9939C821.025 -12.2943 823.73 -13.0187 829.384 -14.7092V1.14309V1.14308Z" fill="#00DA72"/>
<path d="M829.384 32.8473H813.532C813.996 26.8346 814.188 23.8685 814.523 17.9858C820.405 17.6515 823.371 17.4596 829.384 16.9951V32.8473V32.8473Z" fill="#00DA72"/>
<path d="M727.275 43.9125C721.353 43.5523 718.368 43.3475 712.316 42.8572C708.823 39.2895 706.916 37.3327 702.566 32.8472H718.419C722.355 37.6948 724.088 39.8682 727.275 43.9125Z" fill="#00DA72"/>
<path d="M748.276 55.0652C742.869 54.4327 740.134 54.0855 734.541 53.2673C731.877 49.7882 730.462 47.957 727.275 43.9126C733.197 44.2728 736.126 44.422 741.955 44.6893C744.724 49.0989 745.955 51.1401 748.276 55.0652V55.0652Z" fill="#00DA72"/>
<path d="M758.774 73.4574C754.067 71.9375 751.652 71.1157 746.573 69.2242C744.273 66.1619 743.153 64.6579 740.785 61.5061C746.108 62.8461 748.676 63.4231 753.721 64.4845C755.788 68.1289 756.766 69.8896 758.774 73.4574Z" fill="#00DA72"/>
<path d="M756.449 45.2802C750.676 45.0686 747.784 44.9567 741.955 44.6893C739.186 40.2797 737.682 37.9452 734.271 32.8472H750.123C752.935 38.1214 754.173 40.5798 756.449 45.2802V45.2802Z" fill="#00DA72"/>
<path d="M740.785 61.5064C735.462 60.1665 732.727 59.4223 727.013 57.6922C724.455 55.1447 723.146 53.8341 720.25 50.9124C726.103 51.9907 728.948 52.4493 734.542 53.2675C737.206 56.7466 738.417 58.3547 740.785 61.5065V61.5064Z" fill="#00DA72"/>
<path d="M766.099 66.9059C761.222 66.0117 758.765 65.5462 753.721 64.4849C751.654 60.8403 750.597 58.9905 748.276 55.0654C753.684 55.6979 756.344 55.9707 761.64 56.4917C763.543 60.7885 764.407 62.8429 766.099 66.9059V66.9059Z" fill="#00DA72"/>
<path d="M774.817 57.7319C769.558 57.2482 766.936 57.0124 761.64 56.4914C759.737 52.1947 758.726 49.9808 756.449 45.2803C762.222 45.4919 765.096 45.5853 770.851 45.7784C772.597 50.7327 773.369 53.1007 774.817 57.7319V57.7319Z" fill="#00DA72"/>
<path d="M781.32 80.0665C776.91 78.8439 774.718 78.2449 770.233 76.9479C768.591 72.9488 767.791 70.9687 766.099 66.9058C770.976 67.7999 773.377 68.2097 778.199 69.0481C779.478 73.4923 780.081 75.6734 781.32 80.0665V80.0665Z" fill="#00DA72"/>
<path d="M785.251 46.2764C779.479 46.0648 776.605 45.9713 770.851 45.7784C769.104 40.824 768.151 38.2604 765.976 32.8472H781.827C783.366 38.3994 784.034 41.0684 785.251 46.2764V46.2764Z" fill="#00DA72"/>
<path d="M801.357 60.3984C795.95 59.7659 793.29 59.4931 787.994 58.9721C787.001 54.0063 786.468 51.4842 785.251 46.2761C791.024 46.4878 793.917 46.5997 799.745 46.8671C800.47 52.3661 800.782 55.0609 801.357 60.3984V60.3984Z" fill="#00DA72"/>
<path d="M803.866 86.6753C799.158 85.1553 796.892 84.4821 792.407 83.1851C791.57 78.3979 791.165 76.0159 790.298 71.1904C795.175 72.0846 797.632 72.5501 802.677 73.6114C803.168 78.8554 803.395 81.4569 803.866 86.6753L803.866 86.6753Z" fill="#00DA72"/>
<path d="M814.426 47.6441C808.504 47.2839 805.574 47.1347 799.746 46.8674C799.021 41.3684 798.618 38.5756 797.68 32.8472H813.532C813.946 38.8261 814.119 41.7799 814.426 47.6441V47.6441Z" fill="#00DA72"/>
<path d="M790.298 71.1905C785.422 70.2964 783.02 69.8865 778.199 69.0482C776.92 64.604 776.265 62.3635 774.817 57.7322C780.075 58.216 782.699 58.4517 787.994 58.9727C788.987 63.9385 789.432 66.365 790.298 71.1905V71.1905Z" fill="#00DA72"/>
<path d="M815.613 76.5901C810.29 75.2501 807.721 74.673 802.677 73.6117C802.186 68.3678 801.933 65.7367 801.357 60.3992C806.765 61.0317 809.499 61.3788 815.092 62.197C815.324 67.9805 815.423 70.8534 815.613 76.5901H815.613Z" fill="#00DA72"/>
<path d="M829.384 64.5519C823.531 63.4735 820.685 63.0149 815.092 62.1967C814.86 56.4133 814.732 53.5085 814.426 47.6443C820.347 48.0045 823.333 48.2094 829.384 48.6997V64.5519V64.5519Z" fill="#00DA72"/>
<path d="M829.384 96.2564C823.785 93.8447 821.147 92.8001 816.068 90.9086C815.888 85.1846 815.802 82.3266 815.612 76.5898C820.935 77.9298 823.671 78.674 829.384 80.404V96.2564V96.2564Z" fill="#00DA72"/>
<path d="M752.471 77.0162C747.642 74.5774 745.105 73.2343 739.626 70.1453C736.966 67.5302 735.735 66.3219 733.256 63.8765C738.855 66.2881 741.494 67.3328 746.573 69.2243C748.872 72.2867 750.014 73.8053 752.471 77.0162V77.0162Z" fill="#00DA72"/>
<path d="M769.653 92.1033C765.671 89.7128 763.587 88.4247 759.048 85.4768C756.206 81.8796 754.928 80.2272 752.471 77.0164C757.3 79.4551 759.559 80.5196 763.923 82.494C766.066 86.1891 767.18 88.077 769.653 92.1033V92.1033Z" fill="#00DA72"/>
<path d="M784.8 115.081L776.502 106.783C772.211 101.699 770.322 99.4225 766.869 95.2009C771.048 98.5857 772.921 100.061 776.45 102.796C779.447 107.357 781.084 109.78 784.8 115.081V115.081Z" fill="#00DA72"/>
<path d="M774.446 87.0428C770.361 85.3471 768.287 84.4684 763.923 82.494C761.78 78.7989 760.782 77.0257 758.774 73.4578C763.482 74.9778 765.749 75.6509 770.233 76.9479C771.876 80.9471 772.691 82.9377 774.446 87.0428Z" fill="#00DA72"/>
<path d="M766.869 95.2007C762.69 91.8159 760.427 89.9503 755.337 85.6553C751.54 81.885 749.869 80.2349 746.77 77.1782C752.09 80.9064 754.508 82.5288 759.047 85.4766C761.889 89.0738 763.416 90.979 766.869 95.2007V95.2007Z" fill="#00DA72"/>
<path d="M784.731 109.09C781.592 106.745 779.979 105.53 776.45 102.795C773.453 98.2339 772.126 96.1294 769.653 92.103C773.635 94.4936 775.496 95.5587 779.144 97.6149C781.174 101.996 782.264 104.263 784.731 109.09V109.09Z" fill="#00DA72"/>
<path d="M788.077 102.569C784.541 100.625 782.791 99.6711 779.144 97.6149C777.114 93.2338 776.201 91.1476 774.446 87.0425C778.532 88.7381 780.512 89.524 784.505 91.1268C785.835 95.6048 786.527 97.8706 788.077 102.569V102.569Z" fill="#00DA72"/>
<path d="M797.68 127.961C795.302 125.583 794.138 124.419 791.611 121.893C788.546 116.45 787.197 113.917 784.73 109.09C787.869 111.435 789.352 112.52 792.361 114.735C794.26 119.79 795.302 122.413 797.68 127.961V127.961Z" fill="#00DA72"/>
<path d="M794.564 95.2111C790.478 93.5156 788.497 92.7296 784.505 91.1269C783.175 86.649 782.56 84.4596 781.32 80.0664C785.73 81.289 787.923 81.888 792.407 83.185C793.244 87.9721 793.659 90.3603 794.564 95.2111V95.2111Z" fill="#00DA72"/>
<path d="M806.501 113.036C802.519 110.645 800.658 109.58 797.011 107.524C795.941 102.508 795.468 100.062 794.564 95.2114C798.649 96.9072 800.723 97.7859 805.087 99.7602C805.603 105.021 805.875 107.665 806.501 113.036V113.036Z" fill="#00DA72"/>
<path d="M810.56 140.84C807.587 137.868 806.275 136.555 803.748 134.029C802.058 128.375 801.322 125.662 799.991 120.378C803.13 122.723 804.743 123.938 808.272 126.673C809.073 132.222 809.519 135.044 810.56 140.84V140.84Z" fill="#00DA72"/>
<path d="M816.539 105.237C811.71 102.799 809.451 101.734 805.087 99.7598C804.57 94.499 804.337 91.8934 803.866 86.675C808.573 88.195 810.989 89.0167 816.068 90.9083C816.248 96.6322 816.336 99.4923 816.539 105.237V105.237Z" fill="#00DA72"/>
<path d="M799.991 120.379C796.852 118.034 795.37 116.949 792.361 114.735C790.462 109.679 789.627 107.269 788.077 102.57C791.613 104.514 793.363 105.468 797.011 107.524C798.08 112.541 798.66 115.095 799.991 120.379Z" fill="#00DA72"/>
<path d="M817.853 134.267C813.673 130.883 811.801 129.407 808.272 126.673C807.471 121.123 807.128 118.407 806.501 113.036C810.484 115.426 812.567 116.714 817.107 119.662C817.364 125.462 817.508 128.378 817.853 134.267V134.267Z" fill="#00DA72"/>
<path d="M829.384 127.961C824.064 124.233 821.646 122.61 817.107 119.663C816.85 113.862 816.741 110.983 816.539 105.238C821.368 107.677 823.905 109.02 829.384 112.109V127.961Z" fill="#00DA72"/>
<path d="M829.384 159.665C824.628 154.909 822.573 152.854 818.857 149.138C818.393 143.126 818.197 140.157 817.853 134.268C822.032 137.652 824.295 139.518 829.384 143.813V159.665Z" fill="#00DA72"/>
<path d="M858.24 6.22053C852.816 5.55174 850.045 5.15859 844.292 4.16161C844.202 -1.47645 844.179 -4.27389 844.145 -9.8562C849.734 -8.23072 852.37 -7.57591 857.466 -6.44275C857.726 -1.42695 857.869 1.09337 858.24 6.22053V6.22053Z" fill="#00DA72"/>
<path d="M861.089 32.8476H845.236C844.924 26.9866 844.808 24.0964 844.625 18.3655C850.616 18.8082 853.559 18.977 859.386 19.2556C859.943 24.5686 860.271 27.2745 861.089 32.8476H861.089Z" fill="#00DA72"/>
<path d="M844.625 18.3653C838.634 17.9225 835.595 17.6578 829.384 16.9952V1.14307C835.577 2.57973 838.539 3.16482 844.292 4.1618C844.382 9.79986 844.442 12.6343 844.625 18.3653V18.3653Z" fill="#00DA72"/>
<path d="M873.806 19.8049C868.088 19.6346 865.212 19.534 859.386 19.2554C858.829 13.9424 858.612 11.3479 858.24 6.2207C863.664 6.88942 866.299 7.14647 871.507 7.59842C872.296 12.351 872.738 14.7737 873.806 19.8049V19.8049Z" fill="#00DA72"/>
<path d="M884.371 8.57361C879.269 8.22676 876.715 8.05036 871.507 7.59826C870.717 2.84567 870.388 0.534387 869.765 -4.05103C874.537 -3.24293 876.848 -2.91318 881.461 -2.26298C882.526 1.97254 883.083 4.11516 884.371 8.5736V8.57361Z" fill="#00DA72"/>
<path d="M892.793 32.8476H876.941C875.482 27.4263 874.874 24.8364 873.806 19.8052C879.525 19.9755 882.359 20.0358 888.025 20.1535C889.684 24.9835 890.613 27.4975 892.793 32.8476H892.793Z" fill="#00DA72"/>
<path d="M910.007 10.4313C904.781 9.96066 902.221 9.77802 897.112 9.42508C895.301 5.23595 894.504 3.24973 892.971 -0.660645C897.594 -0.00114737 899.914 0.33781 904.713 1.17378C906.682 4.72816 907.704 6.54253 910.007 10.4313Z" fill="#00DA72"/>
<path d="M924.498 32.8474H908.645C905.719 27.5437 904.458 25.0932 902.182 20.4397C907.851 20.5604 910.689 20.6239 916.417 20.8035C919.277 25.2495 920.856 27.6211 924.498 32.8474V32.8474Z" fill="#00DA72"/>
<path d="M917.106 3.65864C911.963 2.47894 909.512 2.00989 904.713 1.17393C902.744 -2.38038 901.834 -4.08324 899.976 -7.52612C904.385 -6.28763 906.657 -5.60041 911.525 -3.90365C913.714 -0.92208 914.787 0.546995 917.106 3.65865V3.65864Z" fill="#00DA72"/>
<path d="M902.182 20.4396C896.513 20.3188 893.691 20.2709 888.025 20.1532C886.365 15.3232 885.659 13.0322 884.371 8.57373C889.474 8.9205 892.003 9.07214 897.112 9.42516C898.923 13.6142 899.906 15.7861 902.182 20.4396V20.4396Z" fill="#00DA72"/>
<path d="M930.868 21.384C925.025 21.0899 922.144 20.9831 916.416 20.8035C913.556 16.3574 912.311 14.3202 910.007 10.4314C915.234 10.9021 917.881 11.1714 923.336 11.8711C926.046 15.3729 927.508 17.2321 930.868 21.384V21.384Z" fill="#00DA72"/>
<path d="M937.377 14.023C931.581 12.9827 928.792 12.571 923.336 11.8712C920.627 8.3695 919.424 6.77026 917.105 3.65869C922.248 4.83831 924.912 5.52101 930.566 7.21152C933.092 9.73793 934.405 11.0508 937.377 14.023V14.023Z" fill="#00DA72"/>
<path d="M956.202 32.8474H940.35C936.08 27.7852 934.227 25.5359 930.868 21.384C936.711 21.6782 939.662 21.8561 945.675 22.3206C949.391 26.036 951.446 28.0917 956.202 32.8474V32.8474Z" fill="#00DA72"/>
<path d="M844.246 47.7087C838.363 48.0431 835.397 48.235 829.384 48.6995V32.8472H845.237C844.772 38.8599 844.58 41.826 844.246 47.7087V47.7087Z" fill="#00DA72"/>
<path d="M857.126 60.5886C851.776 61.1831 849.07 61.5112 843.534 62.2915C843.775 56.5017 843.911 53.5914 844.246 47.7087C850.129 47.3743 853.039 47.2381 858.829 46.9966C858.048 52.5325 857.72 55.2384 857.126 60.5886V60.5886Z" fill="#00DA72"/>
<path d="M854.649 86.8439C849.992 88.3301 847.602 89.135 842.574 90.9927C842.741 85.2772 842.822 82.4225 843.007 76.6885C848.271 75.3881 850.81 74.8308 855.794 73.8091C855.311 79.0477 855.095 81.6424 854.649 86.8439V86.8439Z" fill="#00DA72"/>
<path d="M873.225 46.4703C867.492 46.656 864.618 46.7551 858.829 46.9966C859.609 41.4607 860.048 38.6431 861.089 32.8472H876.941C875.25 38.5007 874.525 41.2068 873.225 46.4703V46.4703Z" fill="#00DA72"/>
<path d="M843.007 76.6885C837.744 77.9889 835.038 78.7133 829.384 80.4038V64.5517C835.18 63.5113 837.998 63.0717 843.534 62.2915C843.292 68.0813 843.193 70.9544 843.007 76.6885V76.6885Z" fill="#00DA72"/>
<path d="M868.024 71.4871C863.207 72.3415 860.779 72.7874 855.794 73.8091C856.277 68.5704 856.531 65.9387 857.126 60.5887C862.476 59.9942 865.108 59.7403 870.346 59.2573C869.324 64.2421 868.878 66.6695 868.024 71.4871V71.4871Z" fill="#00DA72"/>
<path d="M883.381 58.1118C878.179 58.5577 875.585 58.7743 870.346 59.2574C871.367 54.2726 871.925 51.7338 873.225 46.4704C878.959 46.2846 881.814 46.2041 887.529 46.0369C885.672 51.065 884.867 53.4552 883.381 58.1118V58.1118Z" fill="#00DA72"/>
<path d="M876.941 80.4039C872.581 81.5929 870.414 82.175 865.98 83.4382C866.779 78.6763 867.169 76.3046 868.024 71.4871C872.841 70.6324 875.213 70.2424 879.975 69.4436C878.712 73.8772 878.129 76.0446 876.941 80.4039V80.4039Z" fill="#00DA72"/>
<path d="M901.834 45.6033C896.099 45.7891 893.245 45.8696 887.529 46.0367C889.387 41.0087 890.415 38.3954 892.793 32.8472H908.645C905.58 38.2902 904.249 40.8105 901.834 45.6033V45.6033Z" fill="#00DA72"/>
<path d="M909.636 55.635C904.286 56.2294 901.654 56.4833 896.416 56.9663C898.366 52.6379 899.419 50.3964 901.834 45.6035C907.568 45.4178 910.441 45.3187 916.231 45.0771C913.296 49.5975 912.014 51.6719 909.636 55.635V55.635Z" fill="#00DA72"/>
<path d="M899.233 73.9643C894.576 75.4505 892.335 76.1068 887.901 77.3701C889.48 73.4132 890.254 71.4503 891.926 67.4005C896.744 66.546 899.171 66.1001 904.156 65.0784C902.112 68.707 901.165 70.4471 899.233 73.9643Z" fill="#00DA72"/>
<path d="M930.814 44.3649C924.931 44.6992 922.021 44.8355 916.231 45.0769C919.166 40.5566 920.782 38.1478 924.498 32.8472H940.35C936.059 37.931 934.195 40.1913 930.814 44.3649Z" fill="#00DA72"/>
<path d="M891.926 67.4003C887.108 68.2548 884.737 68.6449 879.975 69.4438C881.238 65.0101 881.895 62.7685 883.381 58.1119C888.582 57.666 891.177 57.4493 896.416 56.9663C894.465 61.2947 893.598 63.3505 891.926 67.4003Z" fill="#00DA72"/>
<path d="M916.943 62.1986C911.68 63.499 909.141 64.0563 904.156 65.078C906.199 61.4494 907.258 59.5979 909.636 55.6348C914.986 55.0404 917.692 54.7122 923.228 53.9319C920.497 57.4553 919.284 59.0653 916.943 62.1986V62.1986Z" fill="#00DA72"/>
<path d="M937.378 51.6716C931.581 52.7119 928.764 53.1516 923.228 53.9318C925.959 50.4084 927.433 48.5384 930.814 44.3648C936.697 44.0304 939.662 43.8385 945.675 43.374L937.378 51.6716V51.6716Z" fill="#00DA72"/>
<path d="M924.497 64.5519C918.949 66.9298 916.336 67.9576 911.308 69.8154C913.519 66.8121 914.602 65.3321 916.943 62.1988C922.206 60.8984 924.912 60.174 930.566 58.4834L924.497 64.5519V64.5519Z" fill="#00DA72"/>
<path d="M842.14 105.297C837.348 107.712 834.827 109.043 829.384 112.108V96.2561C834.933 93.8782 837.546 92.8504 842.574 90.9927C842.407 96.7081 842.326 99.5627 842.14 105.297Z" fill="#00DA72"/>
<path d="M852.172 113.099C848.209 115.477 846.134 116.759 841.614 119.694C841.856 113.904 841.955 111.031 842.14 105.297C846.933 102.882 849.175 101.829 853.503 99.8787C853.02 105.117 852.766 107.749 852.172 113.099Z" fill="#00DA72"/>
<path d="M848.209 140.84L839.911 149.138C840.376 143.125 840.567 140.159 840.902 134.277C845.076 130.896 846.945 129.422 850.469 126.691C849.689 132.227 849.249 135.045 848.209 140.84V140.84Z" fill="#00DA72"/>
<path d="M863.937 95.3892C859.887 97.0611 857.831 97.9281 853.503 99.8785C853.986 94.6399 854.203 92.0454 854.649 86.8439C859.305 85.3578 861.547 84.7013 865.98 83.4382C865.182 88.2001 864.791 90.5717 863.937 95.3892V95.3892Z" fill="#00DA72"/>
<path d="M840.902 134.277C836.728 137.658 834.468 139.522 829.384 143.813V127.961C834.685 124.245 837.093 122.629 841.614 119.694C841.372 125.484 841.236 128.394 840.902 134.277V134.277Z" fill="#00DA72"/>
<path d="M858.735 120.406C855.602 122.747 853.992 123.96 850.469 126.691C851.249 121.155 851.577 118.449 852.172 113.099C856.135 110.721 857.986 109.662 861.615 107.619C860.593 112.604 860.036 115.143 858.735 120.406V120.406Z" fill="#00DA72"/>
<path d="M870.501 102.696C866.984 104.628 865.244 105.575 861.615 107.619C862.637 102.634 863.082 100.207 863.937 95.3893C867.987 93.7173 869.95 92.9434 873.907 91.3643C872.643 95.7979 871.987 98.0395 870.501 102.696Z" fill="#00DA72"/>
<path d="M861.089 127.961L855.02 134.029C856.711 128.376 857.435 125.67 858.735 120.406C861.869 118.066 863.349 116.982 866.352 114.771C864.494 119.799 863.466 122.412 861.089 127.961V127.961Z" fill="#00DA72"/>
<path d="M883.876 87.3393C879.826 89.0113 877.864 89.7853 873.907 91.3643C875.17 86.9307 875.752 84.7634 876.941 80.4041C881.3 79.2151 883.467 78.6331 887.901 77.3699C886.322 81.3267 885.548 83.2896 883.876 87.3393V87.3393Z" fill="#00DA72"/>
<path d="M888.83 92.293C884.867 94.6709 883.015 95.7297 879.387 97.7732C881.337 93.4448 882.204 91.389 883.876 87.3392C887.926 85.6673 889.982 84.8005 894.31 82.8499C892.267 86.4785 891.208 88.3299 888.83 92.293V92.293Z" fill="#00DA72"/>
<path d="M873.968 115.081L867.157 121.892C870.222 116.449 871.553 113.929 873.968 109.136C877.102 106.796 878.712 105.582 882.235 102.851C879.3 107.371 877.684 109.78 873.968 115.081Z" fill="#00DA72"/>
<path d="M905.673 77.4318C900.88 79.8469 898.639 80.8995 894.31 82.8502C896.354 79.2214 897.301 77.4815 899.233 73.9643C903.89 72.4781 906.28 71.6731 911.308 69.8154C909.097 72.8186 908.014 74.2986 905.673 77.4318H905.673Z" fill="#00DA72"/>
<path d="M873.968 109.136C870.835 111.477 869.355 112.561 866.352 114.771C868.21 109.743 869.015 107.353 870.501 102.696C874.018 100.764 875.758 99.8169 879.387 97.7734C877.436 102.102 876.383 104.344 873.968 109.136Z" fill="#00DA72"/>
<path d="M891.802 95.2653C887.629 98.6464 885.759 100.12 882.235 102.851C885.17 98.3305 886.452 96.2561 888.83 92.2931C892.793 89.9152 894.868 88.6334 899.388 85.6982C896.657 89.2216 895.183 91.0917 891.802 95.2653Z" fill="#00DA72"/>
<path d="M911.618 77.4316C906.317 81.1471 903.908 82.7631 899.388 85.6983C902.119 82.1749 903.332 80.5649 905.673 77.4316C910.466 75.0166 912.986 73.6854 918.429 70.6201C915.903 73.1466 914.59 74.4593 911.618 77.4316Z" fill="#00DA72"/>
<path d="M892.793 96.2563C888.037 101.012 885.982 103.068 882.266 106.783C886.557 101.699 888.421 99.4392 891.802 95.2656C895.976 91.8845 898.236 90.0208 903.32 85.7295C899.604 89.4448 897.549 91.5006 892.793 96.2563V96.2563Z" fill="#00DA72"/>
<path d="M750.292 315.242C750.592 315.242 750.891 315.243 751.191 315.246L751.171 317.298C744.43 317.224 737.879 317.978 731.669 319.528L731.172 317.537C737.275 316.014 743.708 315.242 750.292 315.242V315.242ZM771.176 317.657L771.287 317.682C777.833 319.44 784.073 322.016 789.865 325.349L788.841 327.127C783.204 323.883 777.129 321.375 770.786 319.671L770.738 319.661L771.176 317.657V317.657ZM805.87 337.617C810.635 342.382 814.766 347.763 818.15 353.611L816.374 354.639C813.08 348.945 809.058 343.706 804.42 339.068L805.87 337.617V337.617ZM825.895 372.227C827.656 378.75 828.551 385.475 828.554 392.216L826.502 392.217C826.499 385.656 825.628 379.111 823.914 372.762L825.895 372.227V372.227ZM674.258 392.388L676.309 392.419C676.303 392.808 676.301 393.196 676.301 393.585C676.301 399.83 677.053 406 678.537 411.925L676.546 412.423C675.022 406.336 674.249 399.998 674.249 393.585C674.249 393.186 674.252 392.787 674.258 392.388V392.388ZM823.942 411.68L825.924 412.212L825.893 412.329C824.134 418.878 821.54 425.147 818.183 430.964L816.406 429.938C819.674 424.277 822.199 418.174 823.91 411.8L823.942 411.68V411.68ZM685.866 430.11C689.125 435.76 693.19 440.952 697.947 445.542L696.522 447.018C691.627 442.295 687.444 436.952 684.089 431.135L685.866 430.11V430.11ZM804.446 445.502L805.895 446.955C801.124 451.713 795.737 455.838 789.885 459.214L788.859 457.437C794.557 454.149 799.801 450.134 804.446 445.502ZM713.731 457.217C719.228 460.31 725.307 462.905 731.8 464.929L731.831 464.938L731.252 466.907L731.542 465.923L731.25 466.906C724.573 464.827 718.353 462.172 712.725 459.004L713.731 457.217V457.217ZM770.727 464.954L771.259 466.935C764.755 468.682 758.05 469.568 751.331 469.568H751.268V467.516H751.331C757.87 467.516 764.396 466.654 770.727 464.954Z" fill="#87A0AF"/>
<path d="M751.254 317.123C757.837 317.123 764.335 317.966 770.605 319.63L769.814 322.613C763.801 321.019 757.567 320.21 751.284 320.21L751.221 320.213L751.082 317.13L751.249 317.123H751.254V317.123ZM788.75 327.11C794.431 330.382 799.674 334.394 804.333 339.033L802.154 341.22C797.686 336.771 792.658 332.923 787.209 329.785L788.75 327.11V327.11ZM816.317 354.566C819.622 360.249 822.163 366.342 823.871 372.675L820.891 373.479C819.253 367.408 816.817 361.567 813.648 356.117L816.317 354.566V354.566ZM826.458 392.119L826.459 392.298C826.459 398.894 825.604 405.438 823.917 411.75L820.935 410.953C822.552 404.901 823.372 398.625 823.372 392.298L823.371 392.133L826.458 392.119V392.119ZM681.908 411.088C683.471 417.266 685.799 423.154 688.827 428.59L686.13 430.092C682.971 424.422 680.544 418.283 678.916 411.845L681.908 411.088V411.088ZM813.732 428.336L816.404 429.881C813.12 435.558 809.099 440.794 804.452 445.442L802.269 443.26C806.726 438.801 810.582 433.78 813.732 428.336H813.732ZM700.134 443.591C704.554 448.006 709.606 451.798 715.148 454.859L713.655 457.562C707.86 454.36 702.577 450.394 697.952 445.775L700.134 443.591V443.591ZM787.353 454.728L788.899 457.4C783.209 460.695 777.112 463.225 770.776 464.921L769.978 461.939C776.051 460.314 781.897 457.887 787.353 454.728ZM732.666 461.738C738.533 463.237 744.817 464.129 751.345 464.388L751.299 465.551L751.323 467.473L751.222 467.472C744.479 467.204 737.979 466.282 731.902 464.729L732.666 461.738V461.738Z" fill="#87A0AF"/>
<path d="M750.386 320.428C750.633 320.428 750.88 320.429 751.127 320.432L751.08 325.048C745.035 324.98 739.156 325.673 733.589 327.069L732.466 322.591C738.186 321.156 744.216 320.428 750.386 320.428V320.428ZM769.696 322.647L769.883 322.691C775.96 324.314 781.782 326.71 787.188 329.813L784.89 333.817C779.831 330.914 774.381 328.671 768.691 327.151L768.977 326.083L769.696 322.647V322.647ZM802.132 341.238C806.581 345.676 810.44 350.69 813.602 356.139L809.609 358.457C806.648 353.354 803.036 348.66 798.871 344.506L802.132 341.238V341.238ZM820.846 373.491C822.497 379.574 823.339 385.845 823.349 392.133L818.733 392.141C818.723 386.259 817.935 380.391 816.391 374.7L820.846 373.491ZM679.441 392.449L684.057 392.511C684.053 392.832 684.05 393.152 684.05 393.472C684.05 399.104 684.732 404.666 686.075 410.003L681.598 411.13C680.162 405.425 679.434 399.484 679.434 393.472C679.434 393.131 679.436 392.79 679.441 392.449V392.449ZM816.457 409.603L820.922 410.78L820.887 410.911C819.259 417.004 816.847 422.853 813.723 428.283L809.721 425.981C812.645 420.9 814.902 415.423 816.43 409.706L816.457 409.603V409.603ZM692.659 426.281C695.583 431.335 699.228 435.98 703.493 440.085L700.292 443.411C695.715 439.007 691.803 434.021 688.663 428.592L692.659 426.281V426.281ZM799.015 439.947L802.279 443.212C797.834 447.656 792.816 451.508 787.362 454.664L785.05 450.668C790.156 447.714 794.854 444.107 799.015 439.947ZM717.669 450.542C722.623 453.322 728.105 455.653 733.964 457.47L733.407 459.266L732.744 461.921L732.571 461.872C726.428 459.966 720.646 457.506 715.41 454.567L717.669 450.542H717.669ZM768.798 457.428L770.001 461.886C763.916 463.528 757.643 464.362 751.356 464.364L751.354 459.748C757.235 459.746 763.104 458.966 768.798 457.428V457.428Z" fill="#87A0AF"/>
<path d="M828.006 160.595V296.367" stroke="#87A0AF" stroke-width="2" stroke-miterlimit="10"/>
<path d="M828.006 160.595L808.855 296.367" stroke="#87A0AF" stroke-width="2" stroke-miterlimit="10"/>
<path d="M828.006 160.595L789.704 296.367" stroke="#87A0AF" stroke-width="2" stroke-miterlimit="10"/>
<path d="M828.006 160.595L770.553 296.367" stroke="#87A0AF" stroke-width="2" stroke-miterlimit="10"/>
<path d="M828.006 160.595L751.402 296.367" stroke="#87A0AF" stroke-width="2" stroke-miterlimit="10"/>
<path d="M828.006 160.595L732.251 296.367" stroke="#87A0AF" stroke-width="2" stroke-miterlimit="10"/>
<path d="M828.006 160.595L713.1 296.367" stroke="#87A0AF" stroke-width="2" stroke-miterlimit="10"/>
<path d="M828.006 160.595L693.949 296.367" stroke="#87A0AF" stroke-width="2" stroke-miterlimit="10"/>
<path d="M828.006 160.595L674.797 296.367" stroke="#87A0AF" stroke-width="2" stroke-miterlimit="10"/>
<path d="M828.006 160.595L655.647 296.367" stroke="#87A0AF" stroke-width="2" stroke-miterlimit="10"/>
<path d="M828.006 160.595L636.495 296.367" stroke="#87A0AF" stroke-width="2" stroke-miterlimit="10"/>
<path d="M828.006 160.595L617.344 296.367" stroke="#87A0AF" stroke-width="2" stroke-miterlimit="10"/>
</g>
<path d="M1100.4 276.257C1100.53 211.685 978.494 159.093 827.826 158.79C677.157 158.487 554.912 210.588 554.782 275.16C554.652 339.732 676.687 392.324 827.356 392.626C978.024 392.929 1100.27 340.829 1100.4 276.257Z" fill="#D2DCDC"/>
<mask id="mask3_589_55950" style="mask-type:alpha" maskUnits="userSpaceOnUse" x="554" y="158" width="547" height="235">
<path d="M1100.4 276.256C1100.53 211.684 978.494 159.092 827.826 158.79C677.157 158.487 554.912 210.587 554.782 275.159C554.652 339.731 676.687 392.323 827.356 392.626C978.024 392.928 1100.27 340.828 1100.4 276.256Z" fill="#D2DCDC"/>
</mask>
<g mask="url(#mask3_589_55950)">
<path d="M1100.16 393.174L1100.4 276.256L554.782 275.159L554.547 392.077L1100.16 393.174Z" fill="#D2DCDC"/>
<path d="M982.776 602.206L983.481 251.452L866.974 251.218L866.269 601.972L982.776 602.206Z" fill="#1D2336"/>
<path d="M749.528 470.766C792.606 470.766 827.528 435.845 827.528 392.767C827.528 349.689 792.606 314.768 749.528 314.768C706.451 314.768 671.529 349.689 671.529 392.767C671.529 435.845 706.451 470.766 749.528 470.766Z" fill="#FF92B7"/>
<path d="M749.55 470.713L749.539 468.643C756.166 468.643 762.768 467.768 769.173 466.043L769.711 468.042C763.132 469.815 756.348 470.713 749.55 470.713V470.713ZM729.365 468.049L729.278 468.025C722.706 466.261 716.404 463.657 710.555 460.29L711.588 458.495C717.281 461.773 723.417 464.308 729.823 466.028L729.365 468.049V468.049ZM788.501 460.238L787.465 458.445C793.212 455.124 798.501 451.069 803.185 446.391L804.648 447.856C799.836 452.661 794.404 456.827 788.501 460.238V460.238ZM694.406 447.905C689.599 443.096 685.432 437.665 682.019 431.763L683.811 430.726C687.134 436.472 691.191 441.76 695.87 446.442L694.406 447.905V447.905ZM817.037 431.711L815.243 430.678C818.527 424.978 821.066 418.835 822.789 412.419L823.803 412.637L824.793 412.939C823.019 419.546 820.411 425.856 817.037 431.711H817.037ZM674.208 412.977C672.432 406.393 671.531 399.606 671.529 392.805L673.6 392.805C673.601 399.424 674.478 406.029 676.206 412.437L674.208 412.977V412.977ZM826.439 392.73H825.404C825.404 386.084 824.531 379.49 822.811 373.095L824.81 372.557C826.578 379.128 827.474 385.903 827.474 392.693L826.439 392.73V392.73ZM676.215 373.062L674.186 372.633L674.201 372.576C675.989 365.918 678.606 359.592 681.994 353.722L683.787 354.757C680.49 360.471 677.942 366.629 676.215 373.062V373.062ZM815.22 354.801C811.901 349.053 807.848 343.763 803.171 339.077L804.637 337.614C809.441 342.427 813.604 347.862 817.013 353.766L815.22 354.801ZM695.856 339.053L694.394 337.587C699.209 332.785 704.645 328.623 710.55 325.217L711.585 327.01C705.836 330.326 700.544 334.378 695.856 339.053V339.053ZM787.463 327.013C781.755 323.722 775.604 321.178 769.18 319.453L769.685 317.445L769.728 317.457C776.315 319.225 782.633 321.838 788.497 325.219L787.463 327.013V327.013ZM729.882 319.424L729.344 317.425C735.907 315.662 742.672 314.768 749.45 314.768H749.454L749.518 316.838H749.514C742.853 316.838 736.27 317.708 729.882 319.424Z" fill="#00DA72"/>
<path d="M749.621 468.599H749.502C742.889 468.599 736.325 467.747 729.992 466.066L730.79 463.056C736.863 464.667 743.159 465.485 749.502 465.485H749.621V468.599V468.599ZM769.25 466.003L768.441 462.995C774.569 461.347 780.465 458.892 785.966 455.699L787.53 458.393C781.793 461.723 775.642 464.283 769.25 466.003V466.003ZM711.683 458.514C705.95 455.211 700.66 451.162 695.961 446.48L698.159 444.273C702.666 448.764 707.74 452.647 713.238 455.815L711.683 458.514V458.514ZM803.211 446.31L801.006 444.11C805.499 439.606 809.385 434.535 812.557 429.038L815.255 430.595C811.948 436.327 807.896 441.614 803.211 446.31H803.211ZM683.869 430.804C680.536 425.069 677.972 418.92 676.25 412.528L679.257 411.718C680.909 417.845 683.366 423.74 686.563 429.239L683.869 430.804H683.869ZM822.817 412.29L819.807 411.49C821.425 405.405 822.245 399.097 822.245 392.741V392.661H825.36V392.741C825.36 399.367 824.504 405.945 822.817 412.29ZM676.758 392.901H673.643V392.741C673.643 386.086 674.506 379.482 676.207 373.112L679.217 373.916C677.585 380.024 676.758 386.357 676.758 392.741V392.901V392.901ZM819.765 373.839C818.122 367.711 815.67 361.814 812.48 356.31L815.174 354.748C818.502 360.488 821.059 366.64 822.774 373.032L819.765 373.839V373.839ZM686.486 356.375L683.789 354.816C687.102 349.087 691.16 343.804 695.849 339.113L698.052 341.315C693.554 345.814 689.663 350.881 686.486 356.375H686.486ZM800.9 341.264C796.398 336.768 791.329 332.88 785.833 329.705L787.391 327.008C793.122 330.318 798.407 334.373 803.101 339.059L800.9 341.264ZM713.104 329.742L711.544 327.047C717.285 323.722 723.438 321.169 729.832 319.457L730.637 322.466C724.508 324.107 718.61 326.555 713.104 329.742ZM768.288 322.446C762.192 320.821 755.871 319.997 749.502 319.997L749.461 316.882H749.502C756.142 316.882 762.733 317.741 769.091 319.436L768.288 322.446H768.288Z" fill="#00DA72"/>
<path d="M749.625 465.462L749.62 460.803C755.555 460.797 761.477 460.005 767.221 458.451L768.438 462.947C762.299 464.609 755.969 465.455 749.625 465.462V465.462ZM730.816 463.002L730.722 462.977C724.595 461.34 718.714 458.919 713.256 455.785L715.575 451.745C720.683 454.678 726.188 456.944 731.936 458.48L730.816 463.002ZM785.952 455.647L783.617 451.616C788.767 448.632 793.505 444.99 797.7 440.789L800.996 444.081C796.515 448.568 791.453 452.46 785.952 455.647V455.647ZM698.178 444.253C693.69 439.773 689.798 434.712 686.608 429.212L690.638 426.875C693.624 432.025 697.268 436.762 701.47 440.955L698.178 444.253V444.253ZM812.534 429.009L808.494 426.688C811.433 421.573 813.703 416.061 815.241 410.306L815.26 410.234L819.745 411.495C818.099 417.655 815.674 423.543 812.534 429.009H812.534ZM679.302 411.701C677.637 405.563 676.789 399.233 676.78 392.889L681.439 392.883C681.447 398.818 682.241 404.739 683.798 410.482L679.302 411.701H679.302ZM817.564 392.646C817.56 386.711 816.771 380.789 815.218 375.044L819.715 373.828C821.375 379.968 822.219 386.298 822.223 392.643L817.564 392.646V392.646ZM683.763 375.175L679.233 374.079L679.267 373.954C680.909 367.808 683.343 361.905 686.495 356.428L690.533 358.752C687.583 363.877 685.305 369.403 683.763 375.175V375.175ZM808.39 358.646C805.408 353.495 801.767 348.756 797.568 344.559L800.861 341.264C805.347 345.747 809.236 350.81 812.422 356.312L808.39 358.646V358.646ZM701.336 344.657L698.043 341.363C702.527 336.88 707.591 332.992 713.095 329.808L715.428 333.84C710.275 336.822 705.534 340.461 701.336 344.658V344.657ZM783.47 333.759C778.364 330.824 772.864 328.555 767.12 327.015L767.005 326.984L767.654 324.714L768.163 322.474L768.27 322.5C774.424 324.145 780.319 326.574 785.792 329.721L783.47 333.759V333.759ZM767.654 324.714L767.645 324.744L767.654 324.714ZM731.828 327.018L730.614 322.52C736.755 320.863 743.085 320.022 749.429 320.02L749.431 324.678C743.496 324.68 737.573 325.467 731.828 327.018V327.018Z" fill="#00DA72"/>
<path d="M749.606 460.667L749.47 460.667C743.581 460.667 737.704 459.904 732.033 458.398L733.626 452.395C738.777 453.762 744.119 454.455 749.502 454.455L749.606 460.667ZM767.184 458.342L765.571 452.343C770.769 450.946 775.77 448.864 780.436 446.155L783.555 451.527C778.416 454.51 772.908 456.803 767.184 458.342ZM715.637 451.635C710.504 448.678 705.768 445.053 701.56 440.86L705.943 436.459C709.769 440.27 714.073 443.565 718.738 446.253L715.637 451.635ZM797.595 440.709L793.197 436.323C797.01 432.5 800.307 428.197 802.998 423.534L808.378 426.637C805.417 431.77 801.789 436.504 797.595 440.709V440.709ZM690.734 426.825C687.748 421.687 685.452 416.181 683.91 410.457L689.908 408.842C691.308 414.038 693.393 419.038 696.104 423.704L690.734 426.825V426.825ZM815.15 410.245L809.147 408.648C810.52 403.487 811.216 398.134 811.216 392.741L816.114 392.685L817.427 392.696C817.427 398.673 816.661 404.562 815.15 410.245ZM687.787 392.88H681.576V392.741C681.576 386.783 682.349 380.869 683.872 375.165L689.874 376.769C688.489 381.95 687.787 387.324 687.787 392.741V392.88ZM809.112 376.704C807.718 371.505 805.639 366.503 802.932 361.835L808.306 358.719C811.286 363.859 813.576 369.369 815.112 375.094L809.112 376.704V376.704ZM696.039 361.89L690.662 358.78C693.628 353.651 697.261 348.921 701.46 344.72L705.853 349.112C702.037 352.93 698.735 357.229 696.039 361.89V361.89ZM793.107 349.069C789.286 345.254 784.985 341.954 780.323 339.261L783.43 333.883C788.56 336.846 793.292 340.476 797.495 344.673L793.107 349.069ZM718.625 339.294L715.512 333.918C720.653 330.941 726.164 328.654 731.89 327.121L733.496 333.121C728.297 334.513 723.293 336.59 718.625 339.294V339.294ZM765.441 333.103C760.271 331.725 754.908 331.026 749.502 331.026L749.467 324.815H749.502C755.448 324.815 761.349 325.584 767.041 327.101L765.441 333.103V333.103Z" fill="#00DA72"/>
<path d="M749.605 454.549L749.597 446.784C754.308 446.78 759.009 446.151 763.569 444.917L765.598 452.411C760.38 453.824 754.999 454.543 749.605 454.549V454.549ZM733.636 452.463L733.513 452.43C728.333 451.046 723.336 448.989 718.696 446.325L722.562 439.592C726.617 441.92 730.988 443.719 735.554 444.939L733.636 452.463V452.463ZM780.482 446.208L776.589 439.49C780.679 437.12 784.443 434.227 787.774 430.891L793.268 436.379C789.459 440.192 785.157 443.499 780.482 446.208H780.482ZM705.879 436.522C702.064 432.713 698.755 428.413 696.045 423.739L702.762 419.845C705.133 423.934 708.027 427.696 711.364 431.026L705.879 436.522H705.879ZM803.076 423.565L796.344 419.697C798.665 415.656 800.462 411.302 801.683 406.755L801.721 406.612L809.202 408.691L805.585 407.686L809.236 408.555L809.202 408.692C807.806 413.915 805.745 418.919 803.076 423.565V423.565ZM689.836 408.858C688.422 403.64 687.7 398.26 687.693 392.866L695.457 392.855C695.464 397.566 696.094 402.267 697.33 406.827L689.836 408.858H689.836ZM803.546 392.664C803.542 387.952 802.916 383.251 801.683 378.691L809.178 376.665C810.589 381.883 811.306 387.264 811.311 392.658L803.546 392.664H803.546ZM697.303 378.793L689.777 376.878L689.812 376.751C691.201 371.552 693.269 366.536 695.949 361.879L702.679 365.751C700.336 369.822 698.527 374.21 697.303 378.793V378.793ZM796.26 365.669C793.892 361.578 791 357.813 787.666 354.481L793.155 348.99C796.967 352.8 800.272 357.102 802.98 361.779L796.26 365.669ZM711.256 354.563L705.766 349.072C709.579 345.261 713.882 341.957 718.559 339.252L722.447 345.972C718.355 348.34 714.59 351.23 711.256 354.563V354.563ZM776.475 345.908C772.409 343.57 768.027 341.765 763.449 340.542L764.432 336.786L765.471 333.045L765.491 333.051C770.684 334.438 775.693 336.502 780.345 339.177L776.475 345.908ZM735.47 340.554L733.447 333.058C738.666 331.649 744.047 330.934 749.441 330.932L749.444 338.696C744.732 338.698 740.031 339.323 735.47 340.554H735.47Z" fill="#00DA72"/>
<path d="M749.607 447.021H749.502C744.781 447.021 740.095 446.413 735.571 445.215L737.957 436.209C741.702 437.201 745.586 437.704 749.502 437.704H749.607V447.021V447.021ZM763.656 445.156L761.232 436.159C765.016 435.14 768.658 433.622 772.055 431.648L776.737 439.703C772.632 442.089 768.231 443.923 763.656 445.156V445.156ZM722.464 439.818C718.362 437.457 714.576 434.562 711.213 431.215L717.786 424.611C720.574 427.387 723.711 429.785 727.111 431.742L722.464 439.818V439.818ZM787.95 431.057L781.35 424.48C784.127 421.694 786.528 418.558 788.487 415.158L796.56 419.811C794.195 423.913 791.299 427.697 787.95 431.057V431.057ZM702.558 420.008C700.17 415.904 698.332 411.505 697.096 406.931L706.091 404.5C707.113 408.285 708.634 411.925 710.611 415.322L702.558 420.008H702.558ZM801.967 406.707L792.962 404.316C793.959 400.56 794.465 396.666 794.465 392.741L803.782 392.67V392.741C803.782 397.473 803.172 402.172 801.967 406.707V406.707ZM704.539 392.881H695.222V392.777C695.221 387.981 695.839 383.257 697.056 378.699L706.057 381.104C705.049 384.878 704.538 388.793 704.538 392.741L704.539 392.881V392.881ZM792.928 381.041C791.912 377.256 790.397 373.614 788.424 370.214L796.484 365.538C798.867 369.646 800.698 374.049 801.927 378.624L792.928 381.041V381.041ZM710.548 370.268L702.482 365.604C704.852 361.506 707.754 357.726 711.108 354.37L717.698 360.957C714.917 363.739 712.512 366.872 710.548 370.268H710.548ZM781.264 360.914C778.479 358.135 775.344 355.732 771.947 353.77L776.605 345.701C780.705 348.068 784.486 350.968 787.845 354.319L781.264 360.914ZM727.003 353.801L722.333 345.739C726.442 343.359 730.846 341.531 735.422 340.305L737.833 349.305C734.047 350.319 730.403 351.832 727.003 353.801V353.801ZM761.108 349.288C757.343 348.286 753.438 347.777 749.502 347.777L749.466 338.46H749.502C754.247 338.46 758.959 339.074 763.506 340.285L761.108 349.288V349.288Z" fill="#00DA72"/>
<path d="M749.638 437.602L749.613 427.617C752.652 427.609 755.682 427.2 758.622 426.401L761.243 436.035C757.458 437.065 753.553 437.592 749.638 437.602V437.602ZM738.06 436.108L737.912 436.069C734.162 435.067 730.555 433.585 727.204 431.668L732.161 423.001C734.765 424.49 737.571 425.643 740.501 426.425L738.06 436.108V436.108ZM772.035 431.521L767.019 422.888C769.657 421.355 772.083 419.486 774.23 417.332L781.303 424.379C778.542 427.15 775.424 429.553 772.035 431.521V431.521ZM717.89 424.568C715.118 421.81 712.712 418.694 710.74 415.306L719.369 410.283C720.904 412.92 722.776 415.344 724.932 417.489L717.89 424.568H717.89ZM788.412 415.071L779.748 410.106C781.245 407.495 782.402 404.681 783.187 401.741L783.209 401.659L792.842 404.286C791.825 408.093 790.337 411.71 788.412 415.071V415.071ZM706.217 404.518C705.184 400.733 704.654 396.829 704.64 392.914L714.625 392.88C714.635 395.919 715.048 398.95 715.85 401.888L706.217 404.518L706.217 404.518ZM784.379 392.659C784.373 389.621 783.967 386.589 783.17 383.649L792.806 381.036C793.833 384.822 794.357 388.727 794.364 392.643L784.379 392.659ZM715.788 383.848L706.131 381.311L706.175 381.144C707.185 377.363 708.686 373.724 710.63 370.345L719.284 375.325C717.774 377.95 716.607 380.781 715.817 383.74L715.788 383.848V383.848ZM779.664 375.249C778.133 372.609 776.265 370.181 774.113 368.033L781.167 360.966C783.934 363.729 786.335 366.849 788.301 370.24L779.664 375.249V375.249ZM724.815 368.108L717.754 361.048C720.519 358.282 723.641 355.885 727.034 353.922L732.034 362.565C729.395 364.092 726.966 365.957 724.815 368.108H724.815ZM766.892 362.508C764.296 361.018 761.499 359.863 758.577 359.075L758.432 359.036L759.78 354.149L760.926 349.37L761.08 349.409C764.867 350.42 768.496 351.915 771.865 353.85L766.892 362.508V362.508ZM759.78 354.149L759.759 354.223L759.78 354.149ZM740.438 359.065L737.833 349.426C741.621 348.403 745.527 347.882 749.441 347.879L749.449 357.864C746.411 357.866 743.38 358.27 740.438 359.065V359.065Z" fill="#00DA72"/>
<path d="M670.952 470.257L671.539 178.164L554.977 177.929L554.39 470.023L670.952 470.257Z" fill="#FF92B7"/>
<path d="M984.243 496.748L984.348 444.731C984.362 437.549 978.55 431.715 971.365 431.701L958.357 431.674C951.172 431.66 945.36 425.826 945.374 418.644L945.479 366.627C945.493 359.445 939.681 353.611 932.497 353.597L919.488 353.571C912.304 353.556 906.491 347.722 906.506 340.54L906.61 288.523C906.625 281.341 900.812 275.508 893.628 275.493L880.619 275.467C873.435 275.452 867.622 269.619 867.637 262.437L867.741 210.42C867.756 203.238 861.943 197.404 854.759 197.389L841.75 197.363C834.566 197.349 828.753 191.515 828.768 184.333L828.872 132.316C828.887 125.134 834.723 119.323 841.907 119.338L1011.02 119.678C1018.2 119.692 1024.02 125.526 1024 132.708L1023.27 496.826C1023.25 504.008 1017.42 509.819 1010.23 509.804L997.226 509.778C990.041 509.764 984.229 503.93 984.243 496.748Z" fill="#E2F700"/>
<path d="M1100.16 393.173L1100.78 84.8342L1023.47 84.6788L1022.85 393.018L1100.16 393.173Z" fill="#00DA72"/>
</g>
<path d="M928.156 352.456C938.918 352.456 947.643 343.732 947.643 332.97C947.643 322.208 938.918 313.483 928.156 313.483C917.394 313.483 908.67 322.208 908.67 332.97C908.67 343.732 917.394 352.456 928.156 352.456Z" fill="#FF2C00"/>
<path d="M1014.69 132.776C1016.16 133.597 1018.02 133.071 1018.84 131.601C1019.66 130.131 1019.13 128.273 1017.66 127.451C1016.19 126.63 1014.34 127.156 1013.51 128.626C1012.69 130.096 1013.22 131.954 1014.69 132.776V132.776Z" fill="#87A0AF"/>
<path d="M1017.66 141.242C1016.19 140.421 1014.34 140.947 1013.51 142.417C1012.69 143.887 1013.22 145.745 1014.69 146.567C1016.16 147.388 1018.02 146.862 1018.84 145.392C1019.66 143.921 1019.13 142.064 1017.66 141.242V141.242Z" fill="#87A0AF"/>
<path d="M1017.66 155.033C1016.19 154.212 1014.34 154.738 1013.51 156.208C1012.69 157.678 1013.22 159.536 1014.69 160.358C1016.16 161.179 1018.02 160.653 1018.84 159.183C1019.66 157.712 1019.13 155.855 1017.66 155.033V155.033Z" fill="#87A0AF"/>
<path d="M1017.66 168.824C1016.19 168.002 1014.34 168.528 1013.51 169.999C1012.69 171.469 1013.22 173.327 1014.69 174.148C1016.16 174.97 1018.02 174.444 1018.84 172.973C1019.66 171.503 1019.13 169.645 1017.66 168.824V168.824Z" fill="#87A0AF"/>
<path d="M1017.66 182.615C1016.19 181.793 1014.34 182.319 1013.51 183.79C1012.69 185.26 1013.22 187.118 1014.69 187.939C1016.16 188.761 1018.02 188.235 1018.84 186.764C1019.66 185.294 1019.13 183.436 1017.66 182.615V182.615Z" fill="#87A0AF"/>
<path d="M1017.66 196.406C1016.19 195.584 1014.34 196.11 1013.51 197.581C1012.69 199.051 1013.22 200.909 1014.69 201.73C1016.16 202.552 1018.02 202.026 1018.84 200.556C1019.66 199.085 1019.13 197.227 1017.66 196.406V196.406Z" fill="#87A0AF"/>
<path d="M1017.66 210.197C1016.19 209.375 1014.34 209.901 1013.51 211.372C1012.69 212.842 1013.22 214.7 1014.69 215.521C1016.16 216.343 1018.02 215.817 1018.84 214.346C1019.66 212.876 1019.13 211.018 1017.66 210.197V210.197Z" fill="#87A0AF"/>
<path d="M1017.66 223.988C1016.19 223.166 1014.34 223.692 1013.51 225.163C1012.69 226.633 1013.22 228.491 1014.69 229.312C1016.16 230.134 1018.02 229.608 1018.84 228.137C1019.66 226.667 1019.13 224.809 1017.66 223.988V223.988Z" fill="#87A0AF"/>
<path d="M1017.66 237.778C1016.19 236.957 1014.34 237.483 1013.51 238.953C1012.69 240.424 1013.22 242.282 1014.69 243.103C1016.16 243.924 1018.02 243.398 1018.84 241.928C1019.66 240.458 1019.13 238.6 1017.66 237.778V237.778Z" fill="#87A0AF"/>
<path d="M1050.68 431.031C1079.73 388.606 1002.96 285.547 879.219 200.842C755.479 116.138 631.626 81.8633 602.584 124.288C573.543 166.713 650.311 269.772 774.05 354.477C897.789 439.181 1021.64 473.456 1050.68 431.031Z" stroke="#87A0AF" stroke-width="2" stroke-miterlimit="10"/>
</g>
<defs>
<clipPath id="clip0_589_55950">
<rect width="1107" height="551" fill="white"/>
</clipPath>
</defs>
</svg>
